<svg xmlns="http://www.w3.org/2000/svg" width="100" viewBox="0 0 375 375" height="100" version="1.0"><defs><clipPath id="a"><path d="M112.5 130.145h150v61.445h-150zm0 0"/></clipPath></defs><g clip-path="url(#a)"><path fill="#00bf63" d="M171.648 144.508c1.102-2.926 1.653-7.528-2.046-8.469 2.347 2.004 2.738 4.727 2.046 8.469zm-12.957 3.094c.621-1.657.934-4.262-1.16-4.793 1.328 1.132 1.547 2.671 1.16 4.793zm28.41-5.711c1.227-3.258 1.837-8.375-2.273-9.418 2.61 2.226 3.043 5.254 2.274 9.418zm12.801 44.46c3.668-2.406 5.453-3.507 9.563-5.101-4.817 1.223-5.754 1.945-9.563 5.102zm-7.246-2.46c3.23.824 3.61 3.875 2.348 6.39.527-2.734.488-4.894-2.348-6.39zm.461 5.832c-1.226-.703-1.035-1.993-.23-2.875-.528 1.054-.758 1.941.23 2.875zm17.492-24.645c.004 0 .004-.004.008-.004h-.012c.004 0 .004.004.004.004zm-1.484.031c.004-.004.004-.004.008-.004h-.012c.004 0 .004 0 .004.004zm-1.48.028v-.004h-.008c.004.004.004.004.008.004zm-2.555 7.902c-1.36 3.375-6.004 4.762-10.125 4.703-2.938-.043-5.168-.387-7.945-1.187-3.766 2.398-8.184 1.933-13.32 1.632-1.571 1.958-2.298 4.97-.184 6.438 2.043 1.418 4.492 2.379 7.066 3.238 1.207-2.855-.848-5.797-6.742-6.773 6.215.285 8.879 3.941 7.926 7.156 2.726.875 5.543 1.7 8.125 2.879 2.285 1.047 4.71.66 6.914-.742 4.054-2.578 8.242-5.035 12.75-7.004 3.632-1.582 5.074-4.363 4.832-8.25a18.22 18.22 0 00-.188-1.727c-.066.012-.137.016-.203.012a.957.957 0 01-.726-.383.956.956 0 01-1.48-.062.956.956 0 01-1.481-.063.944.944 0 01-.754.32.966.966 0 01-.727-.378.97.97 0 01-.754.32.975.975 0 01-.726-.383.956.956 0 01-1.48-.062 1.013 1.013 0 01-.419.273.994.994 0 01-.34.047zm3.984-18.676l-2.48-.105a105.87 105.87 0 00-.082-3.164c-.356.644-.446 1.965-.524 3.14l-.582-.023a.434.434 0 00-.101.004c-.418-1.63-1.04-3.649-1.64-4.281 1.593 5.515 1.534 12.863.417 18.765-.34 1.785-.824 2.528-1.902 3.504a10.292 10.292 0 01-5.563 2.555c2.168.254 4.176-.328 5.938-1.36-1.266 2.938-5.84 3.258-11.457 2.176-2.211-.422-2.688-2.3-2.688-4.273 0-8.547-.215-16.676-.332-25.223-1.078 7.414-1.726 14.738-1.422 21.988.074 1.793-.031 2.891-.922 3.934-1.304 1.516-3.437 2.797-5.87 3.098 2.238.261 4.288-.438 6.05-1.598a5.008 5.008 0 01-1.734 1.988c-2.692 1.809-5.77 2.285-9.547 1.098-1.11-1.027-1.223-2.14-1.266-3.297-.336-8.469-1.25-16.805-1.965-25.254-.308 6.914.461 17.121.36 23.336-.016 1.246-.301 2.438-1.114 3.25-1.273 1.274-3.308 2.246-5.527 2.313 2.309.492 4.496-.215 6.356-1.41a4.87 4.87 0 01-.196.734c-1.36 3.094-9.004 2.804-10.543-.711l-.058-1.516c-.325-7.914-.645-15.824-.97-23.738-1.304 6.25-.878 17.297-.784 22.676.015.918-.09 1.578-.63 2.199-.5.574-1.12 1.098-1.87 1.45.988-.196 1.816-.677 2.5-1.313a6.18 6.18 0 01-.031.48c-.149 1.371-1.051 1.797-2.356 1.63-.828-.106-1.371.112-2.203.03-2.578-.25-3.762-2.074-4.39-4.394-.985-3.63-.575-7.813-.692-11.942-.14-5.156-.149-9.918.617-13.148 1.453-6.133 8.637-8.945 10.531-5.117.657-9.184 10.871-10.2 13.04-6.051 4.62-10 14.601-6.77 16.578-2.875 3.332-4.2 10.53-3.672 14.332 1.789 1.168 2.195 1.683 5.86 1.125 9.29a7.22 7.22 0 001.23-2.692v.015c2.098 2.782 2.098 7.371 2.367 12.043zm-74.758 15.07a.406.406 0 01-.425.028zm1.618-.097a.412.412 0 01-.72.043zm1.52-.09a.412.412 0 01-.427.387h-.004a.409.409 0 01-.386-.336zm1.487-.09l-.828.047v.067a.408.408 0 00.395.425.41.41 0 00.426-.39zm1.489-.09l-.828.051-.008.215a.41.41 0 00.82.035zm1.484-.09l-.824.051-.016.364a.41.41 0 10.82.035zm1.488-.09l-.828.048-.02.52a.414.414 0 00.395.429.416.416 0 00.43-.395zm1.489-.09l-.828.052-.028.668a.414.414 0 00.395.43.416.416 0 00.43-.395zm1.484-.089l-.824.047-.035.824a.408.408 0 00.394.426.41.41 0 00.43-.39zm1.488-.09l-.828.051-.039.973a.41.41 0 00.395.425.41.41 0 00.43-.39zm1.016 1.516a30.43 30.43 0 01-.113-1.57l-.243.011-.046 1.13a.416.416 0 00.394.429zm56.504-15.38l9.308.395-9.175 1.02a31.61 31.61 0 00-.133-1.414zm-56.746 1.821l-.266-.012-.176 4.192-.828.059.18-4.286-.656-.027-.184 4.36-.828.058.187-4.453-.656-.028-.191 4.528-.828.058.195-4.62-.656-.028-.2 4.695-.828.059.203-4.79-.656-.026-.207 4.863-.828.054.211-4.953-.656-.027-.215 5.027-.824.063.215-5.121-.657-.028-.218 5.192-.829.058.223-5.285-.656-.027-.227 5.36-.828.058.23-5.453-.66-.028-.23 5.528-.828.058.238-5.62-.398-.016a1.951 1.951 0 00-.262-.004l-.238 5.687-.828.059.234-5.602a3.12 3.12 0 00-.668.29l-.227 5.359-.828.058.2-4.707a3.284 3.284 0 00-.786 1.985l-.117 2.77-3.277.234.308-7.34a3.277 3.277 0 013.403-3.125l16.523.695c-.027.477-.047.953-.062 1.418a82.387 82.387 0 00-.043 2.781zm55.523 13.594l-.078 1.875a.41.41 0 01-.66.309c.262-.61.508-1.348.738-2.184zm1.676-4.559l-.754.016c-.031.21-.066.422-.098.633l-.242 5.812a.407.407 0 00.39.426.414.414 0 00.43-.394zm1.484-.03l-.824.015-.273 6.539a.41.41 0 00.82.035zm1.485-.028l-.825.015-.277 6.63a.412.412 0 00.39.425.414.414 0 00.43-.394zm1.484-.031l-.824.02-.281 6.718a.413.413 0 00.394.426.413.413 0 00.426-.395zm1.484-.028l-.824.016-.285 6.812a.413.413 0 00.395.426.419.419 0 00.43-.394zm1.485-.031l-.824.02-.29 6.902a.413.413 0 00.395.426.419.419 0 00.43-.395zm1.484-.027l-.824.015-.293 6.992a.414.414 0 00.395.43.416.416 0 00.43-.394zm.215-5.137v.004l-.066.004zm1.27 5.11l-.825.015-.297 7.082a.414.414 0 00.395.43.416.416 0 00.43-.395zm.222-5.255l-.004.098-.828.031.004-.047zm1.262 5.223l-.824.016-.301 7.175a.408.408 0 00.394.426.41.41 0 00.43-.39zm.226-5.367l-.007.195-.825.027.004-.14zm1.258 5.336l-.824.015-.305 7.27a.413.413 0 00.824.035zm.23-5.48l-.01.288-.825.028.008-.239zm1.255 5.452l-.825.016-.113 2.703c.242-.648.547-1.27.903-1.86zm.238-5.597l-.016.383-.828.027.016-.332zm4.086 8.613c-.356.41-.656.863-.883 1.36l-.133 3.187a.413.413 0 00.824.035zm1.539-1.332c-.297.2-.582.41-.852.645l-.222 5.296a.41.41 0 00.394.426.416.416 0 00.43-.39zm1.52-.82l-.02.011a10.02 10.02 0 00-.824.403l-.27 6.41a.413.413 0 00.824.035zm4.011-.993a13.484 13.484 0 00-3.3.711l-.32 7.579a3.277 3.277 0 003.401-3.125zm-26.508-8.03c.04.995.04 2.027 0 3.066l31.809-3.098c8.707-.844 12.73-9.922 11.29-15.469-1.688-6.48-9.477-10.062-17.4-8-7.921 2.063-12.976 8.989-11.288 15.469.636 2.45 2.144 4.484 4.203 5.953zm-56.836 10.421l-26.515 1.602c-6.918-.012-11.79-1.418-8.813-1.75l35.332-3.938c-.011 1.34-.035 2.715-.004 4.086zm87.696-14.101c-6.48 1.687-12.68-.567-13.84-5.032-1.164-4.465 3.148-9.453 9.629-11.136 6.48-1.688 12.68.562 13.84 5.027 1.164 4.465-3.149 9.453-9.63 11.14zm-.778 10.793c-6.562-.817-12.34 2.183-12.902 6.707-.562 4.52 4.3 8.847 10.863 9.664 6.563.816 12.34-2.184 12.903-6.707.562-4.52-4.301-8.848-10.864-9.664zm11.75 2.75c1.399 2.375 2.032 5.023 1.754 7.242-.816 6.566-7.98 11.074-16.004 10.074-8.02-.996-13.859-7.129-13.043-13.691.31-2.477 1.524-4.66 3.348-6.368l-18.238.36c.12-.989.219-2.008.285-3.028l30.61-1.039c2.18-.07 8.878 1.563 15.32 2.57 3.078.481 8.086.235 10.05 3.442.54.887.922 2.059 1.008 3.156.086 1.102-.125 2.125-.472 2.735-.352.613-.848.812-1.215.714-.367-.097-.613-.496-.711-.878-.356-1.34.305-2.957-1.254-4.72-1.664-1.878-8.785-1.16-10.477-.855a4.176 4.176 0 00-.96.286zm-98.671-5.317l-26.91 1.899c-6.645.886-11.188 2.832-8.56 2.847l.036-.004 35.441-3.953c0-.094 0-.187-.004-.285l-.003-.504zm83.601-2.547l-.023.559-6.29.21.005-.09a5.484 5.484 0 00-.262-.019l-.395-.02-.008.153-.824.028.008-.211-.656-.032-.012.266-.824.027.012-.324-.657-.027-.015.375-.828.027.02-.426 10.726-1.043c.023.18.03.364.023.547zm-22.898 1.774c.004-.188.007-.368.007-.535l-2.953.285-.015.347 2.96-.097" fill-rule="evenodd"/></g><path d="M119.71 229.196c.788-.031 1.23-.062 1.831-.223 2.844-.757 4.926-2.84 5.274-5.398.57-4.137-3.063-5.812-5.746-7.043a3.848 3.848 0 01-.508-.254c-2.871-1.324-4.766-2.621-4.703-4.707.156-4.926 7.043-6.695 8.906-2.305l.789-.347c-.79-1.832-3.098-3.348-6.477-2.684-2.746.54-5.273 2.496-5.336 5.274-.093 3.918 3.95 5.812 5.907 6.726.187.067.347.16.535.254 2.969 1.328 4.93 3.633 4.52 5.969-.887 4.96-7.422 5.402-10.708.726l-.695.473c1.832 2.621 4.293 3.54 6.41 3.54zm14.024-.348h2.144v-22.675h-2.144zm18.536.348c3.222-.031 6.16-2.117 7.835-5.621l-.793-.348c-1.387 2.938-4.039 5.118-7.043 5.118-4.261 0-7.386-5.497-7.386-10.707 0-5.18 3.125-10.708 7.386-10.708 2.117 0 4.14 1.106 5.688 2.97l.664-.54c-1.707-2.082-4.043-3.219-6.352-3.281-5.43 0-9.504 5.18-9.504 11.559 0 6.378 4.075 11.558 9.504 11.558zm14.688-.348h.883l1.801-5.812h9.473l1.77 5.812h2.241l-6.98-22.675h-2.242v.03zm2.934-6.664l4.488-14.527 4.453 14.527zm20.753 6.664h2.113v-10.96h3.41l7.836 10.96h2.336l-7.8-10.96c3.156 0 6.125-2.555 6.125-5.903 0-3.445-2.97-5.812-6.063-5.812h-7.957zm2.113-11.812v-10.012h5.434c2.398 0 4.328 2.559 4.328 4.961 0 2.399-1.93 5.051-4.328 5.051zm21.068 11.812h2.145v-22.675h-2.145zm18.536.348c5.402 0 9.508-5.18 9.508-11.558 0-6.38-4.106-11.56-9.508-11.56-5.43 0-9.504 5.18-9.504 11.56 0 6.378 4.074 11.558 9.504 11.558zm0-.851c-4.262 0-7.387-5.528-7.387-10.707 0-5.211 3.125-10.708 7.387-10.708 4.234 0 7.36 5.497 7.36 10.708 0 5.18-3.126 10.707-7.36 10.707zm22.14.851c.79-.031 1.23-.062 1.832-.223 2.844-.757 4.926-2.84 5.274-5.398.57-4.137-3.063-5.812-5.746-7.043a3.848 3.848 0 01-.508-.254c-2.871-1.324-4.766-2.621-4.703-4.707.156-4.926 7.043-6.695 8.906-2.305l.789-.347c-.79-1.832-3.098-3.348-6.477-2.684-2.746.54-5.273 2.496-5.336 5.274-.093 3.918 3.95 5.812 5.907 6.726.187.067.347.16.535.254 2.969 1.328 4.93 3.633 4.52 5.969-.887 4.96-7.423 5.402-10.708.726l-.695.473c1.832 2.621 4.293 3.54 6.41 3.54zm0 0" fill="#7ed957"/><path d="M120.268 255.12l3.547.012c1.41 0 2.516-1.027 2.516-2.465 0-1.2-.77-2.047-1.852-2.348.864-.363 1.45-1.132 1.45-2.164 0-1.355-1.004-2.398-2.32-2.398h-3.34zm.887-4.902v-4.11h2.098c.992 0 1.8 1.055 1.8 2.047 0 .993-.808 2.063-1.8 2.063zm0 4.562v-4.21h2.453c1.016 0 1.852 1.081 1.852 2.097 0 1.02-.836 2.113-1.852 2.113zm12.123.34h.363l.746-2.398h3.91l.73 2.398h.927l-2.88-9.363h-.929v.012zm1.21-2.754l1.856-5.996 1.836 5.996zm12.425 2.754h.875v-4.527h1.406l3.234 4.527h.965l-3.218-4.527c1.3 0 2.527-1.055 2.527-2.438 0-1.422-1.227-2.398-2.504-2.398h-3.285zm.875-4.879v-4.133h2.242c.992 0 1.785 1.055 1.785 2.047 0 .993-.793 2.086-1.785 2.086zm12.552 4.879l3.546.012c1.41 0 2.516-1.027 2.516-2.465 0-1.2-.77-2.047-1.852-2.348.864-.363 1.45-1.132 1.45-2.164 0-1.355-1.004-2.398-2.32-2.398h-3.34zm.886-4.902v-4.11h2.098c.992 0 1.8 1.055 1.8 2.047 0 .993-.808 2.063-1.8 2.063zm0 4.562v-4.21h2.453c1.016 0 1.852 1.081 1.852 2.097 0 1.02-.836 2.113-1.852 2.113zm12.123.34h5.57v-.351h-4.683v-4.215h3.535v-.352h-3.535v-4.094h4.406v-.351h-5.293zm12.514 0h.875v-4.527h1.406l3.235 4.527h.965l-3.22-4.527c1.302 0 2.528-1.055 2.528-2.438 0-1.422-1.226-2.398-2.504-2.398h-3.285zm.875-4.879v-4.133h2.242c.992 0 1.785 1.055 1.785 2.047 0 .993-.793 2.086-1.785 2.086zm14.938 5.024c.325-.016.508-.028.758-.094 1.172-.313 2.031-1.172 2.176-2.23.234-1.708-1.266-2.399-2.375-2.907a2.076 2.076 0 01-.207-.105c-1.188-.547-1.969-1.082-1.942-1.942.063-2.035 2.907-2.765 3.676-.953l.328-.144c-.328-.754-1.28-1.383-2.675-1.11-1.133.223-2.176 1.032-2.204 2.18-.039 1.617 1.63 2.398 2.438 2.777.078.028.144.067.223.106 1.226.547 2.035 1.5 1.863 2.465-.363 2.047-3.063 2.23-4.418.3l-.29.196c.759 1.082 1.774 1.46 2.65 1.46zm9.646-.145h.886v-4.55h3.887v4.55h.887v-9.363h-.887v4.46h-3.887v-4.46h-.886zm16.269.145c2.23 0 3.926-2.14 3.926-4.774 0-2.636-1.695-4.773-3.926-4.773-2.242 0-3.925 2.137-3.925 4.773 0 2.633 1.683 4.774 3.925 4.774zm0-.352c-1.761 0-3.05-2.285-3.05-4.422 0-2.152 1.289-4.422 3.05-4.422 1.75 0 3.04 2.27 3.04 4.422 0 2.137-1.29 4.422-3.04 4.422zm10.609.207h.887v-4.539h2.504c1.133 0 2.387-1.055 2.387-2.437 0-1.422-1.11-2.387-2.516-2.387h-3.261zm.887-4.89v-4.122h2.22c.976 0 1.784 1.043 1.784 2.036 0 .988-.808 2.086-1.785 2.086zm0 0" fill="#c1ff72"/></svg>