<svg xmlns="http://www.w3.org/2000/svg" width="793" viewBox="0 0 595.5 842.25" height="1122" version="1.0"><defs><clipPath id="a"><path d="M24.2 196.074h546.265v224.29H24.199zm0 0"/></clipPath></defs><g clip-path="url(#a)"><path fill="#00bf63" d="M239.645 248.398c4.011-10.664 6.015-27.425-7.45-30.859 8.551 7.3 9.965 17.223 7.45 30.86zm-47.2 11.258c2.266-6.031 3.403-15.511-4.215-17.453 4.836 4.129 5.633 9.738 4.215 17.453zm103.489-20.8c4.46-11.856 6.691-30.497-8.286-34.31 9.504 8.114 11.082 19.15 8.286 34.31zm46.625 161.949c13.359-8.766 19.867-12.778 34.836-18.578-17.555 4.453-20.965 7.086-34.836 18.578zm-26.391-8.965c11.77 3.004 13.144 14.12 8.543 23.277 1.93-9.96 1.781-17.82-8.543-23.277zm1.672 21.246c-4.465-2.563-3.758-7.262-.84-10.477-1.922 3.852-2.754 7.075.84 10.477zm63.726-89.766a.055.055 0 00.016-.011h-.035a.085.085 0 01.02.011zm-5.406.11c.004-.004.012-.008.016-.016l-.035.004c.004.004.015.008.02.012zm-5.406.105l.012-.012h-.032l.02.012zm-9.305 28.785c-4.949 12.297-21.863 17.336-36.883 17.13-10.695-.153-18.812-1.407-28.937-4.329-13.711 8.73-29.805 7.047-48.52 5.945-5.707 7.137-8.367 18.11-.66 23.457 7.438 5.16 16.36 8.657 25.735 11.786 4.402-10.403-3.094-21.11-24.551-24.664 22.637 1.035 32.332 14.359 28.87 26.07 9.93 3.183 20.188 6.183 29.583 10.48 8.336 3.813 17.164 2.407 25.195-2.703 14.766-9.39 30.016-18.347 46.434-25.508 13.23-5.773 18.484-15.894 17.601-30.05a72.36 72.36 0 00-.675-6.301 3.475 3.475 0 01-3.39-1.34 3.501 3.501 0 01-2.751 1.168 3.515 3.515 0 01-2.64-1.395 3.494 3.494 0 01-2.755 1.164 3.48 3.48 0 01-2.64-1.39 3.486 3.486 0 01-2.75 1.164 3.476 3.476 0 01-2.645-1.39 3.509 3.509 0 01-2.75 1.167 3.504 3.504 0 01-2.644-1.394 3.472 3.472 0 01-2.746 1.164 3.494 3.494 0 01-2.645-1.39c-.406.448-.926.8-1.527 1a3.515 3.515 0 01-1.227.163zm14.516-68.027l-9.031-.379a399.93 399.93 0 00-.293-11.527c-1.297 2.34-1.625 7.144-1.918 11.433l-2.118-.086a1.96 1.96 0 00-.37.012c-1.52-5.922-3.778-13.285-5.973-15.594 5.808 20.098 5.593 46.86 1.515 68.36-1.234 6.504-3 9.207-6.918 12.761-5.129 4.645-12.285 8.313-20.273 9.301 7.91.93 15.215-1.199 21.637-4.945-4.61 10.703-21.278 11.863-41.739 7.926-8.043-1.547-9.789-8.38-9.789-15.563 0-31.137-.773-60.75-1.21-91.879-3.915 27.008-6.282 53.688-5.173 80.094.274 6.523-.109 10.527-3.367 14.324-4.738 5.524-12.507 10.188-21.375 11.285 8.157.957 15.618-1.593 22.035-5.816-1.421 2.902-3.46 5.313-6.32 7.23-9.793 6.598-21.008 8.336-34.762 4-4.054-3.742-4.457-7.793-4.62-12-1.22-30.851-4.551-61.214-7.157-91.984-1.125 25.184 1.68 62.363 1.32 85-.07 4.535-1.101 8.879-4.058 11.832-4.637 4.637-12.055 8.18-20.133 8.426 8.406 1.789 16.375-.777 23.14-5.133-.202 1.059-.433 1.957-.706 2.672-4.95 11.266-32.793 10.207-38.403-2.594-.074-1.84-.144-3.676-.219-5.515-1.171-28.825-2.347-57.649-3.519-86.473-4.754 22.766-3.2 63.004-2.871 82.605.058 3.34-.32 5.743-2.285 8.008-1.813 2.09-4.075 4-6.809 5.27 3.594-.711 6.606-2.453 9.102-4.77-.024.7-.059 1.29-.11 1.738-.55 5-3.828 6.56-8.59 5.946-3.015-.39-4.992.402-8.023.11-9.383-.907-13.7-7.56-15.984-16.005-3.586-13.222-2.094-28.465-2.516-43.504-.523-18.777-.55-36.12 2.238-47.886 5.293-22.34 31.461-32.582 38.356-18.641 2.398-33.453 39.61-37.152 47.5-22.035 16.84-36.43 53.191-24.66 60.379-10.48 12.148-15.286 38.363-13.368 52.215 6.519 4.257 7.992 6.132 21.344 4.097 33.832 2.344-3.234 3.735-6.52 4.473-9.8l.012.062c7.628 10.129 7.632 26.847 8.613 43.863zM103.66 339.187a1.45 1.45 0 01-.914.266 1.526 1.526 0 01-.637-.168zm5.899-.355a1.512 1.512 0 01-1.422.852 1.504 1.504 0 01-1.2-.696zm5.535-.332a1.506 1.506 0 01-1.559 1.41h-.004a1.497 1.497 0 01-1.41-1.23zm5.414-.328l-3.008.18-.008.23c-.035.82.606 1.52 1.434 1.555a1.505 1.505 0 001.562-1.426zm5.418-.328l-3.012.183-.031.786a1.495 1.495 0 001.437 1.546 1.493 1.493 0 001.559-1.421zm5.418-.328l-3.012.183-.055 1.336a1.5 1.5 0 002.996.125zm5.418-.325l-3.016.18-.078 1.89a1.502 1.502 0 003 .13zm5.414-.332l-3.012.188-.101 2.441a1.502 1.502 0 003 .13zm5.418-.328l-3.012.18-.129 3.008a1.501 1.501 0 003 .12zm5.414-.328l-3.008.184-.152 3.554a1.502 1.502 0 003 .125zm3.699 5.52a111.23 111.23 0 01-.414-5.715l-.879.05-.172 4.11a1.5 1.5 0 001.438 1.555zm205.816-56.004l33.907 1.426-33.426 3.722c-.121-1.758-.281-3.48-.48-5.148zm-206.703 6.62l-.96-.038-.645 15.27-3.016.21.656-15.605-2.394-.102-.668 15.88-3.012.214.684-16.219-2.399-.097-.691 16.484-3.012.215.707-16.828-2.394-.102-.719 17.098-3.016.21.739-17.433-2.399-.101-.742 17.707-3.016.21.758-18.046-2.39-.098-.77 18.312-3.016.215.786-18.652-2.395-.102-.797 18.922-3.011.215.808-19.262-2.39-.101-.825 19.535-3.015.21.84-19.87-2.399-.102-.844 20.14-3.015.212.863-20.48-1.445-.055c-.32-.02-.633-.02-.95-.004l-.87 20.71-3.012.212.855-20.407c-.86.262-1.68.622-2.445 1.063l-.82 19.512-3.012.214.722-17.14a11.833 11.833 0 00-2.855 7.226l-.426 10.094-11.945.844 1.12-26.723c.274-6.543 5.852-11.668 12.392-11.39l60.19 2.527a198.424 198.424 0 00-.23 5.176c-.117 3.367-.16 6.746-.16 10.12zm202.25 49.524l-.285 6.82a1.5 1.5 0 01-1.562 1.43 1.51 1.51 0 01-.836-.304c.945-2.211 1.847-4.899 2.683-7.946zm6.102-16.61l-2.75.056c-.113.777-.23 1.543-.348 2.304l-.89 21.172a1.49 1.49 0 001.433 1.55 1.498 1.498 0 001.563-1.429zm5.41-.105l-3.008.055-1 23.805c-.035.824.61 1.52 1.438 1.555a1.493 1.493 0 001.558-1.422zm5.406-.109l-3.008.059-1.011 24.14a1.498 1.498 0 002.996.125zm5.407-.105l-3.004.058-1.032 24.473c-.035.82.614 1.52 1.438 1.55a1.494 1.494 0 001.558-1.425zm5.406-.106l-3.004.055-1.043 24.808c-.035.82.613 1.52 1.437 1.551a1.5 1.5 0 001.563-1.422zm5.41-.11l-3.008.063-1.058 25.137c-.036.82.613 1.52 1.437 1.55a1.5 1.5 0 001.566-1.425zm5.406-.105l-3.004.055-1.074 25.477a1.5 1.5 0 003 .125zm.785-18.707v.016l-.25.008zm4.621 18.602l-3.007.058-1.086 25.805a1.503 1.503 0 003.004.129zm.805-19.13l-.012.36-3.011.102.011-.168zm4.606 19.02l-3.012.063-1.094 26.137c-.035.82.61 1.52 1.438 1.55a1.493 1.493 0 001.558-1.421zm.816-19.546l-.023.707-3.012.097.023-.511zm4.59 19.441l-3.008.059-1.113 26.476a1.501 1.501 0 003 .121zm.84-19.973l-.043 1.055-3.012.098.035-.86zm4.566 19.864l-3.008.062-.41 9.844a40.746 40.746 0 013.285-6.774zm.856-20.387l-.055 1.39-3.012.106.055-1.203zm14.89 31.367c-1.297 1.496-2.39 3.149-3.21 4.961l-.493 11.605c-.027.82.613 1.52 1.438 1.555a1.501 1.501 0 001.566-1.43zm5.61-4.844a30.63 30.63 0 00-3.11 2.348l-.808 19.289a1.502 1.502 0 003 .125zm5.527-2.984l-.074.031a39.968 39.968 0 00-2.993 1.469l-.988 23.348c-.027.82.613 1.52 1.442 1.554a1.502 1.502 0 001.562-1.425zm14.613-3.621c-4.11.375-8.18 1.223-12.02 2.598l-1.16 27.593c6.54.278 12.114-4.847 12.391-11.386zm-96.547-29.254c.14 3.629.137 7.383 0 11.168l115.856-11.274c31.722-3.082 46.375-36.148 41.117-56.343-6.145-23.606-34.52-36.657-63.375-29.145-28.852 7.512-47.258 32.738-41.113 56.344 2.324 8.918 7.816 16.328 15.304 21.687zm-207.027 37.957l-96.586 5.84c-25.191-.04-42.934-5.16-32.098-6.367l128.692-14.348c-.031 4.883-.125 9.89-.008 14.875zm319.422-51.363c-23.606 6.148-46.18-2.055-50.41-18.313-4.235-16.265 11.472-34.433 35.078-40.574 23.61-6.152 46.176 2.055 50.41 18.316 4.234 16.262-11.469 34.426-35.078 40.57zm-2.824 39.316c-23.907-2.973-44.946 7.961-46.996 24.43-2.051 16.465 15.664 32.226 39.566 35.207 23.906 2.972 44.945-7.961 46.996-24.43 2.05-16.465-15.664-32.226-39.566-35.207zm42.793 10.016c5.097 8.652 7.394 18.3 6.39 26.39-2.976 23.903-29.07 40.332-58.289 36.692-29.215-3.637-50.484-25.965-47.504-49.871 1.121-9.028 5.543-16.985 12.184-23.2l-66.434 1.309c.45-3.598.801-7.309 1.04-11.027l111.491-3.774c7.946-.265 32.344 5.692 55.81 9.356 11.206 1.754 29.448.855 36.6 12.531 1.977 3.227 3.36 7.504 3.676 11.508.313 4-.445 7.726-1.726 9.957-1.277 2.23-3.078 2.957-4.418 2.601-1.34-.359-2.227-1.808-2.594-3.207-1.293-4.875 1.121-10.773-4.555-17.18-6.074-6.847-32.011-4.238-38.171-3.124-1.344.246-2.5.605-3.5 1.039zm-359.41-19.356l-98.02 6.91c-24.2 3.223-40.742 10.313-31.172 10.375l.129-.015 129.094-14.395c-.004-.347-.004-.695-.008-1.047a142.64 142.64 0 00-.024-1.828zm304.519-9.277l-.09 2.035-22.902.77.015-.329a10.937 10.937 0 00-.949-.078l-1.445-.062-.02.55-3.011.102.035-.781-2.395-.098-.039.961-3.012.102.055-1.188-2.398-.101-.055 1.37-3.012.102.067-1.55 39.066-3.801c.09.652.113 1.316.09 1.996zm-83.41 6.45c.015-.68.027-1.329.031-1.95l-10.754 1.047-.058 1.27 10.78-.368" fill-rule="evenodd"/></g><path d="M17.178 510.936c0 21.8 12.77 34.566 35.192 35.191h3.582c2.644 0 7.941 0 7.941 7.942v11.21c0 4.204-5.918 9.032-14.328 9.032H19.983v22.578h29.582c20.242 0 36.75-14.172 36.75-31.61v-11.21c0-14.637-9.5-30.52-30.363-30.52h-2.028c-10.273 0-14.167-2.336-14.167-12.613 0-3.582 4.515-9.5 7.94-9.5h12.458l22.578.156v-22.578h-37.84c-15.726 1.715-27.715 17.906-27.715 31.922zm105.26-32.231H99.86v117.871h22.578zm76.145.153h-36.438c-14.48 0-26.16 11.68-26.16 26.004v65.554c0 14.48 11.68 26.16 26.16 26.16h36.438v-22.578h-36.438c-2.023 0-3.582-1.554-3.582-3.582v-65.554c0-1.868 1.559-3.578 3.582-3.578h36.438zm42.661 94.363h23.98l4.516 23.355h22.89l-22.577-117.87h-11.524l-.312.152h-4.98l-.157-.153h-11.523v.153l-29.43 117.718h23.355zm13.547-54.5l6.074 31.922H246.85zm112.424 30.676c-.157-5.918-2.18-11.524-5.762-15.883 4.672-5.605 7.32-12.77 7.32-20.867 0-18.371-13.703-32.074-33.012-33.633l-29.585.156v117.72h22.578v-50.762h12.3c2.024 0 3.582 1.555 3.582 3.426l.313 47.336h22.422zm-35.192-25.848h-3.113v-22.113h3.113c2.336 0 14.172.625 14.172 11.21 0 10.126-10.746 10.903-14.172 10.903zm72.873-44.844h-22.578v117.871h22.578zm56.054.465h-16.347c-14.325 0-26.16 11.68-26.16 26.16v65.399c0 14.48 11.835 26.16 26.16 26.16h16.347c14.485 0 26.16-11.68 26.16-26.16V505.33c0-14.48-11.675-26.16-26.16-26.16zm3.738 91.559c0 2.023-1.71 3.582-3.738 3.582h-16.347c-2.024 0-3.582-1.559-3.582-3.582V505.33c0-2.023 1.558-3.738 3.582-3.738h16.347c2.028 0 3.738 1.715 3.738 3.738zm35.969-59.793c0 21.8 12.77 34.566 35.191 35.191h3.582c2.645 0 7.942 0 7.942 7.942v11.21c0 4.204-5.918 9.032-14.328 9.032h-29.582v22.578h29.582c20.242 0 36.75-14.172 36.75-31.61v-11.21c0-14.637-9.5-30.52-30.364-30.52h-2.027c-10.273 0-14.168-2.336-14.168-12.613 0-3.582 4.516-9.5 7.942-9.5h12.457l22.578.156v-22.578h-37.84c-15.727 1.715-27.715 17.906-27.715 31.922zM64.17 648.094s6.098-1.172 6.098-6.801c0-4.93-4.223-9.152-14.781-9.152-7.274 0-13.84.468-13.84.468v32.848s6.566.469 14.074.469c11.735 0 15.957-4.223 15.957-9.383 0-7.04-7.508-8.215-7.508-8.215zm-10.324-7.508h1.64c1.645 0 2.583.941 2.583 2.113 0 1.172-.938 2.113-2.582 2.113h-1.64zm1.875 16.894h-1.875v-4.691h1.875c1.88 0 2.817.937 2.817 2.344 0 1.41-.938 2.347-2.817 2.347zm59.027-24.87H98.795l-9.621 32.847h13.61l.937-4.691h6.101l.938 4.69h13.605s-9.57-32.66-9.617-32.847zm-9.621 20.648l1.644-8.446 1.641 8.446zm70.521 12.199l-7.977-12.668s4.223-2.348 4.223-9.152c0-6.805-4.692-11.496-15.016-11.496-7.039 0-13.605.468-13.605.468v32.848h12.199v-10.793h.469l5.632 10.793zm-20.176-19.238v-5.16h1.406c1.645 0 2.816 1.171 2.816 2.578 0 1.41-1.171 2.582-2.816 2.582zm60.198 1.875s6.098-1.172 6.098-6.801c0-4.93-4.222-9.152-14.781-9.152-7.273 0-13.84.468-13.84.468v32.848s6.567.469 14.074.469c11.735 0 15.957-4.223 15.957-9.383 0-7.04-7.507-8.215-7.507-8.215zm-10.324-7.508h1.641c1.644 0 2.582.941 2.582 2.113 0 1.172-.938 2.113-2.582 2.113h-1.64zm1.875 16.894h-1.875v-4.691h1.875c1.88 0 2.817.937 2.817 2.344 0 1.41-.938 2.347-2.817 2.347zm47.999-3.754h12.2v-9.386h-12.2v-2.344h13.138v-9.387h-25.336v32.848h26.277v-9.383h-14.078zm66.298 11.731l-7.977-12.668s4.223-2.348 4.223-9.152c0-6.805-4.691-11.496-15.016-11.496-7.039 0-13.605.468-13.605.468v32.848h12.2v-10.793h.468l5.633 10.793zm-20.176-19.238v-5.16h1.406c1.645 0 2.817 1.171 2.817 2.578 0 1.41-1.172 2.582-2.817 2.582zm47.761 10.324c-4.691 0-7.976-3.05-7.976-3.05l-4.457 7.038s4.222 5.63 14.547 5.63c8.21 0 13.37-5.161 13.37-10.56 0-10.32-12.667-10.32-12.667-12.667 0-.704.703-1.407 1.879-1.407 3.28 0 6.097 2.578 6.097 2.578l4.457-7.035s-4.222-5.164-12.668-5.164c-8.21 0-13.37 5.164-13.37 10.559 0 10.324 12.667 10.324 12.667 12.668 0 .703-.703 1.41-1.879 1.41zm47.062-23.933h-12.2v32.847h12.2v-11.262h7.508v11.262h12.2v-32.848h-12.2v11.262h-7.508zm63.483 16.425c0 3.285-2.348 5.629-5.164 5.629-2.813 0-5.16-2.344-5.16-5.629 0-3.285 2.347-5.633 5.16-5.633 2.816 0 5.164 2.348 5.164 5.633zm13.137 0c0-9.621-7.508-17.129-18.301-17.129s-18.301 7.508-18.301 17.13c0 9.616 7.508 17.124 18.3 17.124 10.794 0 18.302-7.508 18.302-17.125zm34.387-16.895c-7.508 0-14.074.47-14.074.47v32.847h12.2v-10.559s2.347.235 4.222.235c7.976 0 12.668-4.692 12.668-11.496 0-6.805-4.692-11.496-15.016-11.496zm-1.875 14.079v-5.16h1.875c1.645 0 2.817 1.171 2.817 2.578 0 1.41-1.172 2.582-2.817 2.582zm0 0" fill="#fd3804"/></svg>