<svg xmlns="http://www.w3.org/2000/svg" xmlns:xlink="http://www.w3.org/1999/xlink" width="793" zoomAndPan="magnify" viewBox="0 0 595.5 842.249979" height="1122" preserveAspectRatio="xMidYMid meet" version="1.0"><defs><g/><clipPath id="1057d0d582"><path d="M 24.199219 196.074219 L 570.464844 196.074219 L 570.464844 420.363281 L 24.199219 420.363281 Z M 24.199219 196.074219 " clip-rule="nonzero"/></clipPath></defs><g clip-path="url(#1057d0d582)"><path fill="#00bf63" d="M 239.644531 248.398438 C 243.65625 237.734375 245.660156 220.972656 232.195312 217.539062 C 240.746094 224.839844 242.160156 234.761719 239.644531 248.398438 Z M 192.445312 259.65625 C 194.710938 253.625 195.847656 244.144531 188.230469 242.203125 C 193.066406 246.332031 193.863281 251.941406 192.445312 259.65625 Z M 295.933594 238.855469 C 300.394531 227 302.625 208.359375 287.648438 204.546875 C 297.152344 212.660156 298.730469 223.695312 295.933594 238.855469 Z M 342.558594 400.804688 C 355.917969 392.039062 362.425781 388.027344 377.394531 382.226562 C 359.839844 386.679688 356.429688 389.3125 342.558594 400.804688 Z M 316.167969 391.839844 C 327.9375 394.84375 329.3125 405.960938 324.710938 415.117188 C 326.640625 405.15625 326.492188 397.296875 316.167969 391.839844 Z M 317.839844 413.085938 C 313.375 410.523438 314.082031 405.824219 317 402.609375 C 315.078125 406.460938 314.246094 409.683594 317.839844 413.085938 Z M 381.566406 323.320312 C 381.574219 323.316406 381.578125 323.3125 381.582031 323.308594 L 381.546875 323.308594 C 381.554688 323.3125 381.5625 323.316406 381.566406 323.320312 Z M 376.160156 323.429688 C 376.164062 323.425781 376.171875 323.421875 376.175781 323.414062 L 376.140625 323.417969 C 376.144531 323.421875 376.15625 323.425781 376.160156 323.429688 Z M 370.753906 323.535156 C 370.757812 323.53125 370.761719 323.527344 370.765625 323.523438 L 370.734375 323.523438 C 370.742188 323.527344 370.746094 323.53125 370.753906 323.535156 Z M 361.449219 352.320312 C 356.5 364.617188 339.585938 369.65625 324.566406 369.449219 C 313.871094 369.296875 305.753906 368.042969 295.628906 365.121094 C 281.917969 373.851562 265.824219 372.167969 247.109375 371.066406 C 241.402344 378.203125 238.742188 389.175781 246.449219 394.523438 C 253.886719 399.683594 262.808594 403.179688 272.183594 406.308594 C 276.585938 395.90625 269.089844 385.199219 247.632812 381.644531 C 270.269531 382.679688 279.964844 396.003906 276.503906 407.714844 C 286.433594 410.898438 296.691406 413.898438 306.085938 418.195312 C 314.421875 422.007812 323.25 420.601562 331.28125 415.492188 C 346.046875 406.101562 361.296875 397.144531 377.714844 389.984375 C 390.945312 384.210938 396.199219 374.089844 395.316406 359.933594 C 395.183594 357.824219 394.957031 355.722656 394.640625 353.632812 C 394.394531 353.679688 394.140625 353.695312 393.890625 353.683594 C 392.808594 353.640625 391.859375 353.101562 391.25 352.292969 C 390.574219 353.046875 389.582031 353.503906 388.5 353.460938 C 387.417969 353.410156 386.46875 352.871094 385.859375 352.066406 C 385.183594 352.820312 384.1875 353.277344 383.105469 353.230469 C 382.023438 353.1875 381.070312 352.644531 380.464844 351.839844 C 379.789062 352.59375 378.796875 353.050781 377.714844 353.003906 C 376.632812 352.960938 375.675781 352.421875 375.070312 351.613281 C 374.398438 352.363281 373.402344 352.824219 372.320312 352.78125 C 371.234375 352.730469 370.285156 352.195312 369.675781 351.386719 C 369.003906 352.140625 368.011719 352.597656 366.929688 352.550781 C 365.84375 352.503906 364.890625 351.964844 364.285156 351.160156 C 363.878906 351.609375 363.359375 351.960938 362.757812 352.160156 C 362.363281 352.285156 361.949219 352.34375 361.53125 352.324219 Z M 375.964844 284.292969 L 366.933594 283.914062 C 366.890625 280.042969 366.792969 276.199219 366.640625 272.386719 C 365.34375 274.726562 365.015625 279.53125 364.722656 283.820312 L 362.605469 283.734375 C 362.476562 283.722656 362.351562 283.734375 362.234375 283.746094 C 360.714844 277.824219 358.457031 270.460938 356.261719 268.152344 C 362.070312 288.25 361.855469 315.011719 357.777344 336.511719 C 356.542969 343.015625 354.777344 345.71875 350.859375 349.273438 C 345.730469 353.917969 338.574219 357.585938 330.585938 358.574219 C 338.496094 359.503906 345.800781 357.375 352.222656 353.628906 C 347.613281 364.332031 330.945312 365.492188 310.484375 361.554688 C 302.441406 360.007812 300.695312 353.175781 300.695312 345.992188 C 300.695312 314.855469 299.921875 285.242188 299.484375 254.113281 C 295.570312 281.121094 293.203125 307.800781 294.3125 334.207031 C 294.585938 340.730469 294.203125 344.734375 290.945312 348.53125 C 286.207031 354.054688 278.4375 358.71875 269.570312 359.816406 C 277.726562 360.773438 285.1875 358.222656 291.605469 354 C 290.183594 356.902344 288.144531 359.3125 285.285156 361.230469 C 275.492188 367.828125 264.277344 369.566406 250.523438 365.230469 C 246.46875 361.488281 246.066406 357.4375 245.902344 353.230469 C 244.683594 322.378906 241.351562 292.015625 238.746094 261.246094 C 237.621094 286.429688 240.425781 323.609375 240.066406 346.246094 C 239.996094 350.78125 238.964844 355.125 236.007812 358.078125 C 231.371094 362.714844 223.953125 366.257812 215.875 366.503906 C 224.28125 368.292969 232.25 365.726562 239.015625 361.371094 C 238.8125 362.429688 238.582031 363.328125 238.308594 364.042969 C 233.359375 375.308594 205.515625 374.25 199.90625 361.449219 C 199.832031 359.609375 199.761719 357.773438 199.6875 355.933594 C 198.515625 327.109375 197.339844 298.285156 196.167969 269.460938 C 191.414062 292.226562 192.96875 332.464844 193.296875 352.066406 C 193.355469 355.40625 192.976562 357.808594 191.011719 360.074219 C 189.199219 362.164062 186.9375 364.074219 184.203125 365.34375 C 187.796875 364.632812 190.808594 362.890625 193.304688 360.574219 C 193.28125 361.273438 193.246094 361.863281 193.195312 362.3125 C 192.644531 367.3125 189.367188 368.871094 184.605469 368.257812 C 181.589844 367.867188 179.613281 368.660156 176.582031 368.367188 C 167.199219 367.460938 162.882812 360.808594 160.597656 352.363281 C 157.011719 339.140625 158.503906 323.898438 158.082031 308.859375 C 157.558594 290.082031 157.53125 272.738281 160.320312 260.972656 C 165.613281 238.632812 191.78125 228.390625 198.675781 242.332031 C 201.074219 208.878906 238.285156 205.179688 246.175781 220.296875 C 263.015625 183.867188 299.367188 195.636719 306.554688 209.816406 C 318.703125 194.53125 344.917969 196.449219 358.769531 216.335938 C 363.027344 224.328125 364.902344 237.679688 362.867188 250.167969 C 365.210938 246.933594 366.601562 243.648438 367.339844 240.367188 L 367.351562 240.429688 C 374.980469 250.558594 374.984375 267.277344 375.964844 284.292969 Z M 103.660156 339.1875 C 103.402344 339.371094 103.085938 339.46875 102.746094 339.453125 C 102.515625 339.445312 102.304688 339.382812 102.109375 339.285156 Z M 109.558594 338.832031 C 109.304688 339.359375 108.753906 339.707031 108.136719 339.683594 C 107.632812 339.660156 107.195312 339.390625 106.9375 338.988281 Z M 115.09375 338.5 C 115.050781 339.308594 114.347656 339.941406 113.535156 339.910156 L 113.53125 339.910156 C 112.820312 339.878906 112.238281 339.355469 112.121094 338.679688 Z M 120.507812 338.171875 L 117.5 338.351562 L 117.492188 338.582031 C 117.457031 339.402344 118.097656 340.101562 118.925781 340.136719 C 119.75 340.167969 120.453125 339.527344 120.488281 338.710938 Z M 125.925781 337.84375 L 122.914062 338.027344 L 122.882812 338.8125 C 122.847656 339.628906 123.496094 340.328125 124.320312 340.359375 C 125.144531 340.394531 125.847656 339.753906 125.878906 338.9375 Z M 131.34375 337.515625 L 128.332031 337.699219 L 128.277344 339.035156 C 128.242188 339.859375 128.890625 340.554688 129.710938 340.589844 C 130.535156 340.625 131.242188 339.980469 131.273438 339.160156 Z M 136.761719 337.191406 L 133.746094 337.371094 L 133.667969 339.261719 C 133.632812 340.082031 134.28125 340.78125 135.105469 340.816406 C 135.929688 340.851562 136.632812 340.207031 136.667969 339.390625 Z M 142.175781 336.859375 L 139.164062 337.046875 L 139.0625 339.488281 C 139.027344 340.308594 139.675781 341.007812 140.496094 341.042969 C 141.320312 341.074219 142.027344 340.4375 142.0625 339.617188 Z M 147.59375 336.53125 L 144.582031 336.710938 L 144.453125 339.71875 C 144.417969 340.535156 145.066406 341.234375 145.890625 341.269531 C 146.714844 341.304688 147.417969 340.664062 147.453125 339.839844 Z M 153.007812 336.203125 L 150 336.386719 L 149.847656 339.941406 C 149.816406 340.765625 150.460938 341.460938 151.28125 341.496094 C 152.109375 341.53125 152.8125 340.890625 152.847656 340.066406 Z M 156.707031 341.722656 C 156.519531 339.832031 156.382812 337.921875 156.292969 336.007812 L 155.414062 336.058594 L 155.242188 340.167969 C 155.207031 340.988281 155.851562 341.6875 156.679688 341.722656 Z M 362.523438 285.71875 L 396.429688 287.144531 L 363.003906 290.867188 C 362.882812 289.109375 362.722656 287.386719 362.523438 285.71875 Z M 155.820312 292.339844 L 154.859375 292.300781 L 154.214844 307.570312 L 151.199219 307.78125 L 151.855469 292.175781 L 149.460938 292.074219 L 148.792969 307.953125 L 145.78125 308.167969 L 146.464844 291.949219 L 144.066406 291.851562 L 143.375 308.335938 L 140.363281 308.550781 L 141.070312 291.722656 L 138.675781 291.621094 L 137.957031 308.71875 L 134.941406 308.929688 L 135.679688 291.496094 L 133.28125 291.394531 L 132.539062 309.101562 L 129.523438 309.3125 L 130.28125 291.265625 L 127.890625 291.167969 L 127.121094 309.480469 L 124.105469 309.695312 L 124.890625 291.042969 L 122.496094 290.941406 L 121.699219 309.863281 L 118.6875 310.078125 L 119.496094 290.816406 L 117.105469 290.714844 L 116.28125 310.25 L 113.265625 310.460938 L 114.105469 290.589844 L 111.707031 290.488281 L 110.863281 310.628906 L 107.847656 310.839844 L 108.710938 290.359375 L 107.265625 290.304688 C 106.945312 290.285156 106.632812 290.285156 106.316406 290.300781 L 105.445312 311.011719 L 102.433594 311.222656 L 103.289062 290.816406 C 102.429688 291.078125 101.609375 291.4375 100.84375 291.878906 L 100.023438 311.390625 L 97.011719 311.605469 L 97.734375 294.464844 C 96.054688 296.421875 94.996094 298.929688 94.878906 301.691406 L 94.453125 311.785156 L 82.507812 312.628906 L 83.628906 285.90625 C 83.902344 279.363281 89.480469 274.238281 96.019531 274.515625 L 156.210938 277.042969 C 156.109375 278.785156 156.035156 280.515625 155.980469 282.21875 C 155.863281 285.585938 155.820312 288.964844 155.820312 292.339844 Z M 358.070312 341.863281 L 357.785156 348.683594 C 357.75 349.503906 357.050781 350.148438 356.222656 350.113281 C 355.90625 350.097656 355.621094 349.984375 355.386719 349.808594 C 356.332031 347.597656 357.234375 344.910156 358.070312 341.863281 Z M 364.171875 325.253906 L 361.421875 325.308594 C 361.308594 326.085938 361.191406 326.851562 361.074219 327.613281 L 360.183594 348.785156 C 360.148438 349.605469 360.792969 350.304688 361.617188 350.335938 C 362.445312 350.371094 363.144531 349.730469 363.179688 348.90625 Z M 369.582031 325.148438 L 366.574219 325.203125 L 365.574219 349.007812 C 365.539062 349.832031 366.183594 350.527344 367.011719 350.5625 C 367.835938 350.597656 368.535156 349.960938 368.570312 349.140625 Z M 374.988281 325.039062 L 371.980469 325.097656 L 370.96875 349.238281 C 370.933594 350.058594 371.582031 350.757812 372.402344 350.792969 C 373.230469 350.828125 373.933594 350.183594 373.964844 349.363281 Z M 380.394531 324.933594 L 377.390625 324.992188 L 376.359375 349.464844 C 376.324219 350.285156 376.972656 350.984375 377.796875 351.015625 C 378.621094 351.054688 379.320312 350.410156 379.355469 349.589844 Z M 385.800781 324.828125 L 382.796875 324.882812 L 381.753906 349.691406 C 381.71875 350.511719 382.367188 351.210938 383.191406 351.242188 C 384.015625 351.277344 384.71875 350.636719 384.753906 349.820312 Z M 391.210938 324.71875 L 388.203125 324.78125 L 387.144531 349.917969 C 387.109375 350.738281 387.757812 351.4375 388.582031 351.46875 C 389.40625 351.503906 390.113281 350.867188 390.148438 350.042969 Z M 396.617188 324.613281 L 393.613281 324.667969 L 392.539062 350.144531 C 392.503906 350.960938 393.152344 351.664062 393.976562 351.699219 C 394.804688 351.734375 395.503906 351.089844 395.539062 350.269531 Z M 397.402344 305.90625 L 397.402344 305.921875 L 397.152344 305.929688 Z M 402.023438 324.507812 L 399.015625 324.566406 L 397.929688 350.371094 C 397.902344 351.191406 398.542969 351.890625 399.367188 351.925781 C 400.195312 351.960938 400.898438 351.316406 400.933594 350.5 Z M 402.828125 305.378906 L 402.816406 305.738281 L 399.804688 305.839844 L 399.816406 305.671875 Z M 407.433594 324.398438 L 404.421875 324.460938 L 403.328125 350.597656 C 403.292969 351.417969 403.9375 352.117188 404.765625 352.148438 C 405.589844 352.183594 406.289062 351.546875 406.324219 350.726562 Z M 408.25 304.851562 L 408.226562 305.558594 L 405.214844 305.65625 L 405.238281 305.144531 Z M 412.839844 324.292969 L 409.832031 324.351562 L 408.71875 350.828125 C 408.6875 351.644531 409.328125 352.34375 410.15625 352.378906 C 410.980469 352.414062 411.6875 351.769531 411.71875 350.949219 Z M 413.679688 304.320312 L 413.636719 305.375 L 410.625 305.472656 L 410.660156 304.613281 Z M 418.246094 324.183594 L 415.238281 324.246094 L 414.828125 334.089844 C 415.710938 331.730469 416.816406 329.464844 418.113281 327.316406 Z M 419.101562 303.796875 L 419.046875 305.1875 L 416.035156 305.292969 L 416.089844 304.089844 Z M 433.992188 335.164062 C 432.695312 336.660156 431.601562 338.3125 430.78125 340.125 L 430.289062 351.730469 C 430.261719 352.550781 430.902344 353.25 431.726562 353.285156 C 432.554688 353.320312 433.257812 352.679688 433.292969 351.855469 Z M 439.601562 330.320312 C 438.511719 331.039062 437.476562 331.820312 436.492188 332.667969 L 435.683594 351.957031 C 435.652344 352.78125 436.296875 353.476562 437.121094 353.511719 C 437.949219 353.546875 438.648438 352.902344 438.683594 352.082031 Z M 445.128906 327.335938 L 445.054688 327.367188 C 444.046875 327.8125 443.042969 328.300781 442.0625 328.835938 L 441.074219 352.183594 C 441.046875 353.003906 441.6875 353.703125 442.515625 353.738281 C 443.339844 353.769531 444.042969 353.132812 444.078125 352.3125 Z M 459.742188 323.714844 C 455.632812 324.089844 451.5625 324.9375 447.722656 326.3125 L 446.5625 353.90625 C 453.101562 354.183594 458.675781 349.058594 458.953125 342.519531 Z M 363.195312 294.460938 C 363.335938 298.089844 363.332031 301.84375 363.195312 305.628906 L 479.050781 294.355469 C 510.773438 291.273438 525.425781 258.207031 520.167969 238.011719 C 514.023438 214.40625 485.648438 201.355469 456.792969 208.867188 C 427.941406 216.378906 409.535156 241.605469 415.679688 265.210938 C 418.003906 274.128906 423.496094 281.539062 430.984375 286.898438 Z M 156.167969 332.417969 L 59.582031 338.257812 C 34.390625 338.21875 16.648438 333.097656 27.484375 331.890625 L 156.175781 317.542969 C 156.144531 322.425781 156.050781 327.433594 156.167969 332.417969 Z M 475.589844 281.054688 C 451.984375 287.203125 429.410156 279 425.179688 262.742188 C 420.945312 246.476562 436.652344 228.308594 460.257812 222.167969 C 483.867188 216.015625 506.433594 224.222656 510.667969 240.484375 C 514.902344 256.746094 499.199219 274.910156 475.589844 281.054688 Z M 472.765625 320.371094 C 448.859375 317.398438 427.820312 328.332031 425.769531 344.800781 C 423.71875 361.265625 441.433594 377.027344 465.335938 380.007812 C 489.242188 382.980469 510.28125 372.046875 512.332031 355.578125 C 514.382812 339.113281 496.667969 323.351562 472.765625 320.371094 Z M 515.558594 330.386719 C 520.65625 339.039062 522.953125 348.6875 521.949219 356.777344 C 518.972656 380.679688 492.878906 397.109375 463.660156 393.46875 C 434.445312 389.832031 413.175781 367.503906 416.15625 343.597656 C 417.277344 334.570312 421.699219 326.613281 428.339844 320.398438 L 361.90625 321.707031 C 362.355469 318.109375 362.707031 314.398438 362.945312 310.679688 L 474.4375 306.90625 C 482.382812 306.640625 506.78125 312.597656 530.246094 316.261719 C 541.453125 318.015625 559.695312 317.117188 566.847656 328.792969 C 568.824219 332.019531 570.207031 336.296875 570.523438 340.300781 C 570.835938 344.300781 570.078125 348.027344 568.796875 350.257812 C 567.519531 352.488281 565.71875 353.214844 564.378906 352.859375 C 563.039062 352.5 562.152344 351.050781 561.785156 349.652344 C 560.492188 344.777344 562.90625 338.878906 557.230469 332.472656 C 551.15625 325.625 525.21875 328.234375 519.058594 329.347656 C 517.714844 329.59375 516.558594 329.953125 515.558594 330.386719 Z M 156.148438 311.03125 L 58.128906 317.941406 C 33.929688 321.164062 17.386719 328.253906 26.957031 328.316406 L 27.085938 328.300781 L 156.179688 313.90625 C 156.175781 313.558594 156.175781 313.210938 156.171875 312.859375 C 156.167969 312.25 156.160156 311.640625 156.148438 311.03125 Z M 460.667969 301.753906 L 460.578125 303.789062 L 437.675781 304.558594 L 437.691406 304.230469 C 437.378906 304.191406 437.0625 304.164062 436.742188 304.152344 L 435.296875 304.089844 L 435.277344 304.640625 L 432.265625 304.742188 L 432.300781 303.960938 L 429.90625 303.863281 L 429.867188 304.824219 L 426.855469 304.925781 L 426.910156 303.738281 L 424.511719 303.636719 L 424.457031 305.007812 L 421.445312 305.109375 L 421.511719 303.558594 L 460.578125 299.757812 C 460.667969 300.410156 460.691406 301.074219 460.667969 301.753906 Z M 377.257812 308.203125 C 377.273438 307.523438 377.285156 306.875 377.289062 306.253906 L 366.535156 307.300781 L 366.476562 308.570312 L 377.257812 308.203125 " fill-opacity="1" fill-rule="evenodd"/></g><g fill="#fd3804" fill-opacity="1"><g transform="translate(17.178385, 596.73273)"><g><path d="M 0 -85.796875 C 0 -63.996094 12.769531 -51.230469 35.191406 -50.605469 L 38.773438 -50.605469 C 41.417969 -50.605469 46.714844 -50.605469 46.714844 -42.664062 L 46.714844 -31.453125 C 46.714844 -27.25 40.796875 -22.421875 32.386719 -22.421875 L 2.804688 -22.421875 L 2.804688 0.15625 L 32.386719 0.15625 C 52.628906 0.15625 69.136719 -14.015625 69.136719 -31.453125 L 69.136719 -42.664062 C 69.136719 -57.300781 59.636719 -73.183594 38.773438 -73.183594 L 36.746094 -73.183594 C 26.472656 -73.183594 22.578125 -75.519531 22.578125 -85.796875 C 22.578125 -89.378906 27.09375 -95.296875 30.519531 -95.296875 L 42.976562 -95.296875 L 65.554688 -95.140625 L 65.554688 -117.71875 L 27.714844 -117.71875 C 11.988281 -116.003906 0 -99.8125 0 -85.796875 Z M 0 -85.796875 "/></g></g></g><g fill="#fd3804" fill-opacity="1"><g transform="translate(99.860174, 596.73273)"><g><path d="M 22.578125 -118.027344 L 0 -118.027344 L 0 -0.15625 L 22.578125 -0.15625 Z M 22.578125 -118.027344 "/></g></g></g><g fill="#fd3804" fill-opacity="1"><g transform="translate(135.984994, 596.73273)"><g><path d="M 62.597656 -117.875 L 26.160156 -117.875 C 11.679688 -117.875 0 -106.195312 0 -91.871094 L 0 -26.316406 C 0 -11.835938 11.679688 -0.15625 26.160156 -0.15625 L 62.597656 -0.15625 L 62.597656 -22.734375 L 26.160156 -22.734375 C 24.136719 -22.734375 22.578125 -24.289062 22.578125 -26.316406 L 22.578125 -91.871094 C 22.578125 -93.738281 24.136719 -95.449219 26.160156 -95.449219 L 62.597656 -95.449219 Z M 62.597656 -117.875 "/></g></g></g><g fill="#fd3804" fill-opacity="1"><g transform="translate(212.126999, 596.73273)"><g><path d="M 29.117188 -23.511719 L 53.097656 -23.511719 L 57.613281 -0.15625 L 80.503906 -0.15625 L 57.925781 -118.027344 L 46.402344 -118.027344 L 46.089844 -117.875 L 41.109375 -117.875 L 40.953125 -118.027344 L 29.429688 -118.027344 L 29.429688 -117.875 L 0 -0.15625 L 23.355469 -0.15625 Z M 42.664062 -78.011719 L 48.738281 -46.089844 L 34.722656 -46.089844 Z M 42.664062 -78.011719 "/></g></g></g><g fill="#fd3804" fill-opacity="1"><g transform="translate(306.175524, 596.73273)"><g><path d="M 61.039062 -47.335938 C 60.882812 -53.253906 58.859375 -58.859375 55.277344 -63.21875 C 59.949219 -68.824219 62.597656 -75.988281 62.597656 -84.085938 C 62.597656 -102.457031 48.894531 -116.160156 29.585938 -117.71875 L 0 -117.5625 L 0 0.15625 L 22.578125 0.15625 L 22.578125 -50.605469 L 34.878906 -50.605469 C 36.902344 -50.605469 38.460938 -49.050781 38.460938 -47.179688 L 38.773438 0.15625 L 61.195312 0.15625 Z M 25.847656 -73.183594 L 22.734375 -73.183594 L 22.734375 -95.296875 L 25.847656 -95.296875 C 28.183594 -95.296875 40.019531 -94.671875 40.019531 -84.085938 C 40.019531 -73.960938 29.273438 -73.183594 25.847656 -73.183594 Z M 25.847656 -73.183594 "/></g></g></g><g fill="#fd3804" fill-opacity="1"><g transform="translate(382.31754, 596.73273)"><g><path d="M 22.578125 -118.027344 L 0 -118.027344 L 0 -0.15625 L 22.578125 -0.15625 Z M 22.578125 -118.027344 "/></g></g></g><g fill="#fd3804" fill-opacity="1"><g transform="translate(418.442382, 596.73273)"><g><path d="M 42.507812 -117.5625 L 26.160156 -117.5625 C 11.835938 -117.5625 0 -105.882812 0 -91.402344 L 0 -26.003906 C 0 -11.523438 11.835938 0.15625 26.160156 0.15625 L 42.507812 0.15625 C 56.992188 0.15625 68.667969 -11.523438 68.667969 -26.003906 L 68.667969 -91.402344 C 68.667969 -105.882812 56.992188 -117.5625 42.507812 -117.5625 Z M 46.246094 -26.003906 C 46.246094 -23.980469 44.535156 -22.421875 42.507812 -22.421875 L 26.160156 -22.421875 C 24.136719 -22.421875 22.578125 -23.980469 22.578125 -26.003906 L 22.578125 -91.402344 C 22.578125 -93.425781 24.136719 -95.140625 26.160156 -95.140625 L 42.507812 -95.140625 C 44.535156 -95.140625 46.246094 -93.425781 46.246094 -91.402344 Z M 46.246094 -26.003906 "/></g></g></g><g fill="#fd3804" fill-opacity="1"><g transform="translate(500.657039, 596.73273)"><g><path d="M 0 -85.796875 C 0 -63.996094 12.769531 -51.230469 35.191406 -50.605469 L 38.773438 -50.605469 C 41.417969 -50.605469 46.714844 -50.605469 46.714844 -42.664062 L 46.714844 -31.453125 C 46.714844 -27.25 40.796875 -22.421875 32.386719 -22.421875 L 2.804688 -22.421875 L 2.804688 0.15625 L 32.386719 0.15625 C 52.628906 0.15625 69.136719 -14.015625 69.136719 -31.453125 L 69.136719 -42.664062 C 69.136719 -57.300781 59.636719 -73.183594 38.773438 -73.183594 L 36.746094 -73.183594 C 26.472656 -73.183594 22.578125 -75.519531 22.578125 -85.796875 C 22.578125 -89.378906 27.09375 -95.296875 30.519531 -95.296875 L 42.976562 -95.296875 L 65.554688 -95.140625 L 65.554688 -117.71875 L 27.714844 -117.71875 C 11.988281 -116.003906 0 -99.8125 0 -85.796875 Z M 0 -85.796875 "/></g></g></g><g fill="#fd3804" fill-opacity="1"><g transform="translate(38.83056, 665.456945)"><g><path d="M 25.339844 -17.363281 C 25.339844 -17.363281 31.4375 -18.535156 31.4375 -24.164062 C 31.4375 -29.09375 27.214844 -33.316406 16.65625 -33.316406 C 9.382812 -33.316406 2.816406 -32.847656 2.816406 -32.847656 L 2.816406 0 C 2.816406 0 9.382812 0.46875 16.890625 0.46875 C 28.625 0.46875 32.847656 -3.753906 32.847656 -8.914062 C 32.847656 -15.953125 25.339844 -17.128906 25.339844 -17.128906 Z M 15.015625 -24.871094 L 16.65625 -24.871094 C 18.300781 -24.871094 19.238281 -23.929688 19.238281 -22.757812 C 19.238281 -21.585938 18.300781 -20.644531 16.65625 -20.644531 L 15.015625 -20.644531 Z M 16.890625 -7.976562 C 15.953125 -7.976562 15.015625 -7.976562 15.015625 -7.976562 L 15.015625 -12.667969 L 16.890625 -12.667969 C 18.769531 -12.667969 19.707031 -11.730469 19.707031 -10.324219 C 19.707031 -8.914062 18.769531 -7.976562 16.890625 -7.976562 Z M 16.890625 -7.976562 "/></g></g></g><g fill="#fd3804" fill-opacity="1"><g transform="translate(88.705073, 665.456945)"><g><path d="M 26.042969 -32.847656 L 10.089844 -32.847656 L 0.46875 0 L 14.078125 0 L 15.015625 -4.691406 L 21.117188 -4.691406 L 22.054688 0 L 35.660156 0 C 35.660156 0 26.089844 -32.660156 26.042969 -32.847656 Z M 16.421875 -12.199219 L 18.066406 -20.644531 L 19.707031 -12.199219 Z M 16.421875 -12.199219 "/></g></g></g><g fill="#fd3804" fill-opacity="1"><g transform="translate(140.456199, 665.456945)"><g><path d="M 35.191406 0 L 27.214844 -12.667969 C 27.214844 -12.667969 31.4375 -15.015625 31.4375 -21.820312 C 31.4375 -28.625 26.746094 -33.316406 16.421875 -33.316406 C 9.382812 -33.316406 2.816406 -32.847656 2.816406 -32.847656 L 2.816406 0 L 15.015625 0 L 15.015625 -10.792969 L 15.484375 -10.792969 L 21.117188 0 Z M 15.015625 -19.238281 L 15.015625 -24.398438 L 16.421875 -24.398438 C 18.066406 -24.398438 19.238281 -23.226562 19.238281 -21.820312 C 19.238281 -20.410156 18.066406 -19.238281 16.421875 -19.238281 Z M 15.015625 -19.238281 "/></g></g></g><g fill="#fd3804" fill-opacity="1"><g transform="translate(190.330706, 665.456945)"><g><path d="M 25.339844 -17.363281 C 25.339844 -17.363281 31.4375 -18.535156 31.4375 -24.164062 C 31.4375 -29.09375 27.214844 -33.316406 16.65625 -33.316406 C 9.382812 -33.316406 2.816406 -32.847656 2.816406 -32.847656 L 2.816406 0 C 2.816406 0 9.382812 0.46875 16.890625 0.46875 C 28.625 0.46875 32.847656 -3.753906 32.847656 -8.914062 C 32.847656 -15.953125 25.339844 -17.128906 25.339844 -17.128906 Z M 15.015625 -24.871094 L 16.65625 -24.871094 C 18.300781 -24.871094 19.238281 -23.929688 19.238281 -22.757812 C 19.238281 -21.585938 18.300781 -20.644531 16.65625 -20.644531 L 15.015625 -20.644531 Z M 16.890625 -7.976562 C 15.953125 -7.976562 15.015625 -7.976562 15.015625 -7.976562 L 15.015625 -12.667969 L 16.890625 -12.667969 C 18.769531 -12.667969 19.707031 -11.730469 19.707031 -10.324219 C 19.707031 -8.914062 18.769531 -7.976562 16.890625 -7.976562 Z M 16.890625 -7.976562 "/></g></g></g><g fill="#fd3804" fill-opacity="1"><g transform="translate(240.205213, 665.456945)"><g><path d="M 15.015625 -11.730469 L 27.214844 -11.730469 L 27.214844 -21.117188 L 15.015625 -21.117188 L 15.015625 -23.460938 L 28.152344 -23.460938 L 28.152344 -32.847656 L 2.816406 -32.847656 L 2.816406 0 L 29.09375 0 L 29.09375 -9.382812 L 15.015625 -9.382812 Z M 15.015625 -11.730469 "/></g></g></g><g fill="#fd3804" fill-opacity="1"><g transform="translate(286.326517, 665.456945)"><g><path d="M 35.191406 0 L 27.214844 -12.667969 C 27.214844 -12.667969 31.4375 -15.015625 31.4375 -21.820312 C 31.4375 -28.625 26.746094 -33.316406 16.421875 -33.316406 C 9.382812 -33.316406 2.816406 -32.847656 2.816406 -32.847656 L 2.816406 0 L 15.015625 0 L 15.015625 -10.792969 L 15.484375 -10.792969 L 21.117188 0 Z M 15.015625 -19.238281 L 15.015625 -24.398438 L 16.421875 -24.398438 C 18.066406 -24.398438 19.238281 -23.226562 19.238281 -21.820312 C 19.238281 -20.410156 18.066406 -19.238281 16.421875 -19.238281 Z M 15.015625 -19.238281 "/></g></g></g><g fill="#fd3804" fill-opacity="1"><g transform="translate(336.201024, 665.456945)"><g><path d="M 12.902344 -8.914062 C 8.210938 -8.914062 4.925781 -11.964844 4.925781 -11.964844 L 0.46875 -4.925781 C 0.46875 -4.925781 4.691406 0.703125 15.015625 0.703125 C 23.226562 0.703125 28.386719 -4.457031 28.386719 -9.855469 C 28.386719 -20.175781 15.71875 -20.175781 15.71875 -22.523438 C 15.71875 -23.226562 16.421875 -23.929688 17.597656 -23.929688 C 20.878906 -23.929688 23.695312 -21.351562 23.695312 -21.351562 L 28.152344 -28.386719 C 28.152344 -28.386719 23.929688 -33.550781 15.484375 -33.550781 C 7.273438 -33.550781 2.113281 -28.386719 2.113281 -22.992188 C 2.113281 -12.667969 14.78125 -12.667969 14.78125 -10.324219 C 14.78125 -9.621094 14.078125 -8.914062 12.902344 -8.914062 Z M 12.902344 -8.914062 "/></g></g></g><g fill="#fd3804" fill-opacity="1"><g transform="translate(381.149437, 665.456945)"><g><path d="M 15.015625 -32.847656 L 2.816406 -32.847656 L 2.816406 0 L 15.015625 0 L 15.015625 -11.261719 L 22.523438 -11.261719 L 22.523438 0 L 34.722656 0 L 34.722656 -32.847656 L 22.523438 -32.847656 L 22.523438 -21.585938 L 15.015625 -21.585938 Z M 15.015625 -32.847656 "/></g></g></g><g fill="#fd3804" fill-opacity="1"><g transform="translate(434.308038, 665.456945)"><g><path d="M 25.339844 -16.421875 C 25.339844 -13.136719 22.992188 -10.792969 20.175781 -10.792969 C 17.363281 -10.792969 15.015625 -13.136719 15.015625 -16.421875 C 15.015625 -19.707031 17.363281 -22.054688 20.175781 -22.054688 C 22.992188 -22.054688 25.339844 -19.707031 25.339844 -16.421875 Z M 38.476562 -16.421875 C 38.476562 -26.042969 30.96875 -33.550781 20.175781 -33.550781 C 9.382812 -33.550781 1.875 -26.042969 1.875 -16.421875 C 1.875 -6.804688 9.382812 0.703125 20.175781 0.703125 C 30.96875 0.703125 38.476562 -6.804688 38.476562 -16.421875 Z M 38.476562 -16.421875 "/></g></g></g><g fill="#fd3804" fill-opacity="1"><g transform="translate(490.281552, 665.456945)"><g><path d="M 16.890625 -33.316406 C 9.382812 -33.316406 2.816406 -32.847656 2.816406 -32.847656 L 2.816406 0 L 15.015625 0 L 15.015625 -10.558594 C 15.015625 -10.558594 17.363281 -10.324219 19.238281 -10.324219 C 27.214844 -10.324219 31.90625 -15.015625 31.90625 -21.820312 C 31.90625 -28.625 27.214844 -33.316406 16.890625 -33.316406 Z M 15.015625 -19.238281 L 15.015625 -24.398438 L 16.890625 -24.398438 C 18.535156 -24.398438 19.707031 -23.226562 19.707031 -21.820312 C 19.707031 -20.410156 18.535156 -19.238281 16.890625 -19.238281 Z M 15.015625 -19.238281 "/></g></g></g><g fill="#fd3804" fill-opacity="1"><g transform="translate(539.22088, 665.456945)"><g/></g></g></svg>