<svg xmlns="http://www.w3.org/2000/svg" xmlns:xlink="http://www.w3.org/1999/xlink" width="100" zoomAndPan="magnify" viewBox="0 0 375 374.999991" height="100" preserveAspectRatio="xMidYMid meet" version="1.0"><defs><g/><clipPath id="4a529cecfb"><path d="M 112.5 130.144531 L 262.5 130.144531 L 262.5 191.589844 L 112.5 191.589844 Z M 112.5 130.144531 " clip-rule="nonzero"/></clipPath></defs><g clip-path="url(#4a529cecfb)"><path fill="#00bf63" d="M 171.648438 144.507812 C 172.75 141.582031 173.300781 136.980469 169.601562 136.039062 C 171.949219 138.042969 172.339844 140.765625 171.648438 144.507812 Z M 158.691406 147.601562 C 159.3125 145.945312 159.625 143.339844 157.53125 142.808594 C 158.859375 143.941406 159.078125 145.480469 158.691406 147.601562 Z M 187.101562 141.890625 C 188.328125 138.632812 188.9375 133.515625 184.828125 132.472656 C 187.4375 134.699219 187.871094 137.726562 187.101562 141.890625 Z M 199.902344 186.351562 C 203.570312 183.945312 205.355469 182.84375 209.464844 181.25 C 204.648438 182.472656 203.710938 183.195312 199.902344 186.351562 Z M 192.65625 183.890625 C 195.886719 184.714844 196.265625 187.765625 195.003906 190.28125 C 195.53125 187.546875 195.492188 185.386719 192.65625 183.890625 Z M 193.117188 189.722656 C 191.890625 189.019531 192.082031 187.730469 192.886719 186.847656 C 192.359375 187.902344 192.128906 188.789062 193.117188 189.722656 Z M 210.609375 165.078125 C 210.613281 165.078125 210.613281 165.074219 210.617188 165.074219 L 210.605469 165.074219 C 210.609375 165.074219 210.609375 165.078125 210.609375 165.078125 Z M 209.125 165.109375 C 209.128906 165.105469 209.128906 165.105469 209.132812 165.105469 L 209.121094 165.105469 C 209.125 165.105469 209.125 165.105469 209.125 165.109375 Z M 207.644531 165.136719 C 207.644531 165.136719 207.644531 165.136719 207.644531 165.132812 L 207.636719 165.132812 C 207.640625 165.136719 207.640625 165.136719 207.644531 165.136719 Z M 205.089844 173.039062 C 203.730469 176.414062 199.085938 177.800781 194.964844 177.742188 C 192.027344 177.699219 189.796875 177.355469 187.019531 176.554688 C 183.253906 178.953125 178.835938 178.488281 173.699219 178.1875 C 172.128906 180.144531 171.402344 183.15625 173.515625 184.625 C 175.558594 186.042969 178.007812 187.003906 180.582031 187.863281 C 181.789062 185.007812 179.734375 182.066406 173.839844 181.089844 C 180.054688 181.375 182.71875 185.03125 181.765625 188.246094 C 184.492188 189.121094 187.308594 189.945312 189.890625 191.125 C 192.175781 192.171875 194.601562 191.785156 196.804688 190.382812 C 200.859375 187.804688 205.046875 185.347656 209.554688 183.378906 C 213.1875 181.796875 214.628906 179.015625 214.386719 175.128906 C 214.351562 174.550781 214.289062 173.972656 214.199219 173.402344 C 214.132812 173.414062 214.0625 173.417969 213.996094 173.414062 C 213.699219 173.402344 213.4375 173.253906 213.269531 173.03125 C 213.085938 173.238281 212.8125 173.363281 212.515625 173.351562 C 212.21875 173.339844 211.957031 173.191406 211.789062 172.96875 C 211.605469 173.175781 211.332031 173.300781 211.035156 173.289062 C 210.738281 173.277344 210.476562 173.128906 210.308594 172.90625 C 210.125 173.113281 209.851562 173.242188 209.554688 173.226562 C 209.257812 173.214844 208.996094 173.066406 208.828125 172.847656 C 208.644531 173.050781 208.371094 173.179688 208.074219 173.167969 C 207.773438 173.152344 207.515625 173.003906 207.347656 172.785156 C 207.164062 172.992188 206.890625 173.117188 206.59375 173.105469 C 206.292969 173.089844 206.035156 172.941406 205.867188 172.722656 C 205.753906 172.84375 205.613281 172.941406 205.449219 172.996094 C 205.339844 173.03125 205.226562 173.046875 205.109375 173.042969 Z M 209.074219 154.363281 L 206.59375 154.257812 C 206.582031 153.199219 206.554688 152.140625 206.511719 151.09375 C 206.15625 151.738281 206.066406 153.058594 205.988281 154.234375 L 205.40625 154.210938 C 205.371094 154.207031 205.335938 154.210938 205.304688 154.214844 C 204.886719 152.585938 204.265625 150.566406 203.664062 149.933594 C 205.257812 155.449219 205.199219 162.796875 204.082031 168.699219 C 203.742188 170.484375 203.257812 171.226562 202.179688 172.203125 C 200.773438 173.480469 198.808594 174.484375 196.617188 174.757812 C 198.785156 175.011719 200.792969 174.429688 202.554688 173.398438 C 201.289062 176.335938 196.714844 176.65625 191.097656 175.574219 C 188.886719 175.152344 188.410156 173.273438 188.410156 171.300781 C 188.410156 162.753906 188.195312 154.625 188.078125 146.078125 C 187 153.492188 186.351562 160.816406 186.65625 168.066406 C 186.730469 169.859375 186.625 170.957031 185.734375 172 C 184.429688 173.515625 182.296875 174.796875 179.863281 175.097656 C 182.101562 175.359375 184.152344 174.660156 185.914062 173.5 C 185.523438 174.296875 184.960938 174.960938 184.179688 175.488281 C 181.488281 177.296875 178.410156 177.773438 174.632812 176.585938 C 173.523438 175.558594 173.410156 174.445312 173.367188 173.289062 C 173.03125 164.820312 172.117188 156.484375 171.402344 148.035156 C 171.09375 154.949219 171.863281 165.15625 171.761719 171.371094 C 171.746094 172.617188 171.460938 173.808594 170.648438 174.621094 C 169.375 175.894531 167.339844 176.867188 165.121094 176.933594 C 167.429688 177.425781 169.617188 176.71875 171.476562 175.523438 C 171.417969 175.816406 171.355469 176.0625 171.28125 176.257812 C 169.921875 179.351562 162.277344 179.0625 160.738281 175.546875 C 160.71875 175.042969 160.699219 174.539062 160.679688 174.03125 C 160.355469 166.117188 160.035156 158.207031 159.710938 150.292969 C 158.40625 156.542969 158.832031 167.589844 158.925781 172.96875 C 158.941406 173.886719 158.835938 174.546875 158.296875 175.167969 C 157.796875 175.742188 157.175781 176.265625 156.425781 176.617188 C 157.414062 176.421875 158.242188 175.941406 158.925781 175.304688 C 158.917969 175.5 158.910156 175.660156 158.894531 175.785156 C 158.746094 177.15625 157.84375 177.582031 156.539062 177.414062 C 155.710938 177.308594 155.167969 177.527344 154.335938 177.445312 C 151.757812 177.195312 150.574219 175.371094 149.945312 173.050781 C 148.960938 169.421875 149.371094 165.238281 149.253906 161.109375 C 149.113281 155.953125 149.105469 151.191406 149.871094 147.960938 C 151.324219 141.828125 158.507812 139.015625 160.402344 142.84375 C 161.058594 133.660156 171.273438 132.644531 173.441406 136.792969 C 178.0625 126.792969 188.042969 130.023438 190.019531 133.917969 C 193.351562 129.71875 200.550781 130.246094 204.351562 135.707031 C 205.519531 137.902344 206.035156 141.566406 205.476562 144.996094 C 206.121094 144.109375 206.503906 143.207031 206.707031 142.304688 L 206.707031 142.320312 C 208.804688 145.101562 208.804688 149.691406 209.074219 154.363281 Z M 134.316406 169.433594 C 134.246094 169.484375 134.15625 169.511719 134.0625 169.507812 C 134 169.503906 133.941406 169.488281 133.890625 169.460938 Z M 135.933594 169.335938 C 135.863281 169.480469 135.714844 169.578125 135.542969 169.570312 C 135.40625 169.5625 135.285156 169.488281 135.214844 169.378906 Z M 137.453125 169.246094 C 137.441406 169.46875 137.25 169.640625 137.027344 169.632812 L 137.023438 169.632812 C 136.828125 169.625 136.667969 169.480469 136.636719 169.296875 Z M 138.941406 169.15625 L 138.113281 169.203125 L 138.113281 169.269531 C 138.101562 169.492188 138.277344 169.6875 138.507812 169.695312 C 138.734375 169.703125 138.925781 169.527344 138.933594 169.304688 Z M 140.429688 169.066406 L 139.601562 169.117188 L 139.59375 169.332031 C 139.582031 169.554688 139.761719 169.746094 139.988281 169.757812 C 140.214844 169.765625 140.40625 169.589844 140.414062 169.367188 Z M 141.914062 168.976562 L 141.089844 169.027344 L 141.074219 169.390625 C 141.0625 169.617188 141.242188 169.808594 141.46875 169.820312 C 141.695312 169.828125 141.886719 169.652344 141.894531 169.425781 Z M 143.402344 168.886719 L 142.574219 168.933594 L 142.554688 169.453125 C 142.542969 169.679688 142.722656 169.871094 142.949219 169.882812 C 143.175781 169.890625 143.367188 169.714844 143.378906 169.488281 Z M 144.890625 168.796875 L 144.0625 168.847656 L 144.035156 169.515625 C 144.023438 169.742188 144.203125 169.933594 144.429688 169.945312 C 144.65625 169.953125 144.847656 169.777344 144.859375 169.550781 Z M 146.375 168.707031 L 145.550781 168.753906 L 145.515625 169.578125 C 145.503906 169.804688 145.683594 169.996094 145.910156 170.003906 C 146.136719 170.015625 146.328125 169.839844 146.339844 169.613281 Z M 147.863281 168.617188 L 147.035156 168.667969 L 146.996094 169.640625 C 146.988281 169.867188 147.164062 170.058594 147.390625 170.066406 C 147.617188 170.078125 147.808594 169.902344 147.820312 169.675781 Z M 148.878906 170.132812 C 148.828125 169.613281 148.789062 169.085938 148.765625 168.5625 L 148.523438 168.574219 L 148.476562 169.703125 C 148.46875 169.929688 148.644531 170.121094 148.871094 170.132812 Z M 205.382812 154.753906 L 214.691406 155.148438 L 205.515625 156.167969 C 205.480469 155.6875 205.4375 155.214844 205.382812 154.753906 Z M 148.636719 156.574219 L 148.371094 156.5625 L 148.195312 160.753906 L 147.367188 160.8125 L 147.546875 156.527344 L 146.890625 156.5 L 146.707031 160.859375 L 145.878906 160.917969 L 146.066406 156.464844 L 145.410156 156.4375 L 145.21875 160.964844 L 144.390625 161.023438 L 144.585938 156.402344 L 143.929688 156.375 L 143.730469 161.070312 L 142.902344 161.128906 L 143.105469 156.339844 L 142.449219 156.3125 L 142.242188 161.175781 L 141.414062 161.230469 L 141.625 156.277344 L 140.96875 156.25 L 140.753906 161.277344 L 139.929688 161.339844 L 140.144531 156.21875 L 139.488281 156.191406 L 139.269531 161.382812 L 138.441406 161.441406 L 138.664062 156.15625 L 138.007812 156.128906 L 137.78125 161.488281 L 136.953125 161.546875 L 137.183594 156.09375 L 136.523438 156.066406 L 136.292969 161.59375 L 135.464844 161.652344 L 135.703125 156.03125 L 135.304688 156.015625 C 135.21875 156.007812 135.128906 156.007812 135.042969 156.011719 L 134.804688 161.699219 L 133.976562 161.757812 L 134.210938 156.15625 C 133.976562 156.226562 133.753906 156.324219 133.542969 156.445312 L 133.316406 161.804688 L 132.488281 161.863281 L 132.6875 157.15625 C 132.226562 157.695312 131.9375 158.382812 131.902344 159.140625 L 131.785156 161.910156 L 128.507812 162.144531 L 128.816406 154.804688 C 128.890625 153.011719 130.421875 151.605469 132.21875 151.679688 L 148.742188 152.375 C 148.714844 152.851562 148.695312 153.328125 148.679688 153.792969 C 148.648438 154.71875 148.636719 155.644531 148.636719 156.574219 Z M 204.160156 170.167969 L 204.082031 172.042969 C 204.074219 172.265625 203.878906 172.445312 203.652344 172.433594 C 203.566406 172.429688 203.488281 172.398438 203.421875 172.351562 C 203.683594 171.742188 203.929688 171.003906 204.160156 170.167969 Z M 205.835938 165.609375 L 205.082031 165.625 C 205.050781 165.835938 205.015625 166.046875 204.984375 166.257812 L 204.742188 172.070312 C 204.730469 172.292969 204.90625 172.488281 205.132812 172.496094 C 205.359375 172.503906 205.554688 172.328125 205.5625 172.101562 Z M 207.320312 165.578125 L 206.496094 165.59375 L 206.222656 172.132812 C 206.210938 172.355469 206.386719 172.546875 206.617188 172.558594 C 206.839844 172.566406 207.035156 172.390625 207.042969 172.167969 Z M 208.804688 165.550781 L 207.980469 165.566406 L 207.703125 172.195312 C 207.691406 172.417969 207.871094 172.609375 208.09375 172.621094 C 208.320312 172.628906 208.515625 172.453125 208.523438 172.226562 Z M 210.289062 165.519531 L 209.464844 165.539062 L 209.183594 172.257812 C 209.171875 172.480469 209.351562 172.671875 209.578125 172.683594 C 209.800781 172.691406 209.996094 172.515625 210.003906 172.289062 Z M 211.773438 165.492188 L 210.949219 165.507812 L 210.664062 172.320312 C 210.652344 172.542969 210.832031 172.734375 211.058594 172.746094 C 211.28125 172.753906 211.476562 172.578125 211.488281 172.351562 Z M 213.257812 165.460938 L 212.433594 165.480469 L 212.144531 172.382812 C 212.132812 172.605469 212.3125 172.796875 212.539062 172.808594 C 212.761719 172.816406 212.957031 172.640625 212.96875 172.414062 Z M 214.742188 165.433594 L 213.917969 165.449219 L 213.625 172.441406 C 213.613281 172.667969 213.792969 172.859375 214.019531 172.871094 C 214.246094 172.878906 214.4375 172.703125 214.449219 172.476562 Z M 214.957031 160.296875 L 214.957031 160.300781 L 214.890625 160.304688 Z M 216.226562 165.40625 L 215.402344 165.421875 L 215.105469 172.503906 C 215.09375 172.730469 215.273438 172.921875 215.5 172.933594 C 215.726562 172.941406 215.917969 172.765625 215.929688 172.539062 Z M 216.449219 160.152344 L 216.445312 160.25 L 215.617188 160.28125 L 215.621094 160.234375 Z M 217.710938 165.375 L 216.886719 165.390625 L 216.585938 172.566406 C 216.574219 172.792969 216.753906 172.984375 216.980469 172.992188 C 217.207031 173.003906 217.398438 172.828125 217.410156 172.601562 Z M 217.9375 160.007812 L 217.929688 160.203125 L 217.105469 160.230469 L 217.109375 160.089844 Z M 219.195312 165.34375 L 218.371094 165.359375 L 218.066406 172.628906 C 218.054688 172.855469 218.234375 173.046875 218.460938 173.054688 C 218.6875 173.066406 218.878906 172.886719 218.890625 172.664062 Z M 219.425781 159.863281 L 219.414062 160.152344 L 218.589844 160.179688 L 218.597656 159.941406 Z M 220.679688 165.316406 L 219.855469 165.332031 L 219.742188 168.035156 C 219.984375 167.386719 220.289062 166.765625 220.644531 166.175781 Z M 220.917969 159.71875 L 220.902344 160.101562 L 220.074219 160.128906 L 220.089844 159.796875 Z M 225.003906 168.332031 C 224.648438 168.742188 224.347656 169.195312 224.121094 169.691406 L 223.988281 172.878906 C 223.980469 173.105469 224.15625 173.296875 224.382812 173.304688 C 224.609375 173.3125 224.800781 173.140625 224.8125 172.914062 Z M 226.542969 167 C 226.246094 167.199219 225.960938 167.410156 225.691406 167.644531 L 225.46875 172.941406 C 225.460938 173.167969 225.636719 173.359375 225.863281 173.367188 C 226.089844 173.375 226.28125 173.199219 226.292969 172.976562 Z M 228.0625 166.179688 L 228.042969 166.191406 C 227.765625 166.3125 227.488281 166.445312 227.21875 166.59375 L 226.949219 173.003906 C 226.941406 173.226562 227.117188 173.421875 227.34375 173.429688 C 227.570312 173.4375 227.761719 173.261719 227.773438 173.039062 Z M 232.074219 165.1875 C 230.945312 165.289062 229.828125 165.523438 228.773438 165.898438 L 228.453125 173.476562 C 230.25 173.550781 231.78125 172.144531 231.855469 170.351562 Z M 205.566406 157.15625 C 205.605469 158.152344 205.605469 159.183594 205.566406 160.222656 L 237.375 157.125 C 246.082031 156.28125 250.105469 147.203125 248.664062 141.65625 C 246.976562 135.175781 239.1875 131.59375 231.265625 133.65625 C 223.34375 135.71875 218.289062 142.644531 219.976562 149.125 C 220.613281 151.574219 222.121094 153.609375 224.179688 155.078125 Z M 148.730469 167.578125 L 122.214844 169.179688 C 115.296875 169.167969 110.425781 167.761719 113.402344 167.429688 L 148.734375 163.492188 C 148.722656 164.832031 148.699219 166.207031 148.730469 167.578125 Z M 236.425781 153.476562 C 229.945312 155.164062 223.746094 152.910156 222.585938 148.445312 C 221.421875 143.980469 225.734375 138.992188 232.214844 137.308594 C 238.695312 135.621094 244.894531 137.871094 246.054688 142.335938 C 247.21875 146.800781 242.90625 151.789062 236.425781 153.476562 Z M 235.648438 164.269531 C 229.085938 163.453125 223.308594 166.453125 222.746094 170.976562 C 222.183594 175.496094 227.046875 179.824219 233.609375 180.640625 C 240.171875 181.457031 245.949219 178.457031 246.511719 173.933594 C 247.074219 169.414062 242.210938 165.085938 235.648438 164.269531 Z M 247.398438 167.019531 C 248.796875 169.394531 249.429688 172.042969 249.152344 174.261719 C 248.335938 180.828125 241.171875 185.335938 233.148438 184.335938 C 225.128906 183.339844 219.289062 177.207031 220.105469 170.644531 C 220.414062 168.167969 221.628906 165.984375 223.453125 164.277344 L 205.214844 164.636719 C 205.335938 163.648438 205.433594 162.628906 205.5 161.609375 L 236.109375 160.570312 C 238.289062 160.5 244.988281 162.132812 251.429688 163.140625 C 254.507812 163.621094 259.515625 163.375 261.480469 166.582031 C 262.019531 167.46875 262.402344 168.640625 262.488281 169.738281 C 262.574219 170.839844 262.363281 171.863281 262.015625 172.472656 C 261.664062 173.085938 261.167969 173.285156 260.800781 173.1875 C 260.433594 173.089844 260.1875 172.691406 260.089844 172.308594 C 259.734375 170.96875 260.394531 169.351562 258.835938 167.589844 C 257.171875 165.710938 250.050781 166.429688 248.359375 166.734375 C 247.988281 166.800781 247.671875 166.898438 247.398438 167.019531 Z M 148.726562 161.703125 L 121.816406 163.601562 C 115.171875 164.488281 110.628906 166.433594 113.257812 166.449219 L 113.292969 166.445312 L 148.734375 162.492188 C 148.734375 162.398438 148.734375 162.304688 148.730469 162.207031 C 148.730469 162.039062 148.726562 161.871094 148.726562 161.703125 Z M 232.328125 159.15625 L 232.304688 159.714844 L 226.015625 159.925781 L 226.019531 159.835938 C 225.933594 159.828125 225.847656 159.820312 225.757812 159.816406 L 225.363281 159.796875 L 225.355469 159.949219 L 224.53125 159.976562 L 224.539062 159.765625 L 223.882812 159.734375 L 223.871094 160 L 223.046875 160.027344 L 223.058594 159.703125 L 222.402344 159.675781 L 222.386719 160.050781 L 221.558594 160.078125 L 221.578125 159.652344 L 232.304688 158.609375 C 232.328125 158.789062 232.335938 158.972656 232.328125 159.15625 Z M 209.429688 160.929688 C 209.433594 160.742188 209.4375 160.5625 209.4375 160.394531 L 206.484375 160.679688 L 206.46875 161.027344 L 209.429688 160.929688 " fill-opacity="1" fill-rule="evenodd"/></g><g fill="#7ed957" fill-opacity="1"><g transform="translate(110.771749, 228.848452)"><g><path d="M 8.9375 0.347656 C 9.726562 0.316406 10.167969 0.285156 10.769531 0.125 C 13.613281 -0.632812 15.695312 -2.714844 16.042969 -5.273438 C 16.613281 -9.410156 12.980469 -11.085938 10.296875 -12.316406 C 10.136719 -12.378906 9.949219 -12.476562 9.789062 -12.570312 C 6.917969 -13.894531 5.023438 -15.191406 5.085938 -17.277344 C 5.242188 -22.203125 12.128906 -23.972656 13.992188 -19.582031 L 14.78125 -19.929688 C 13.992188 -21.761719 11.683594 -23.277344 8.304688 -22.613281 C 5.558594 -22.074219 3.03125 -20.117188 2.96875 -17.339844 C 2.875 -13.421875 6.917969 -11.527344 8.875 -10.613281 C 9.0625 -10.546875 9.222656 -10.453125 9.410156 -10.359375 C 12.378906 -9.03125 14.339844 -6.726562 13.929688 -4.390625 C 13.042969 0.570312 6.507812 1.011719 3.222656 -3.664062 L 2.527344 -3.191406 C 4.359375 -0.570312 6.820312 0.347656 8.9375 0.347656 Z M 8.9375 0.347656 "/></g></g></g><g fill="#7ed957" fill-opacity="1"><g transform="translate(130.573803, 228.848452)"><g><path d="M 3.160156 0 L 5.304688 0 L 5.304688 -22.675781 L 3.160156 -22.675781 Z M 3.160156 0 "/></g></g></g><g fill="#7ed957" fill-opacity="1"><g transform="translate(140.237994, 228.848452)"><g><path d="M 12.03125 0.347656 C 15.253906 0.316406 18.191406 -1.769531 19.867188 -5.273438 L 19.074219 -5.621094 C 17.6875 -2.683594 15.035156 -0.503906 12.03125 -0.503906 C 7.769531 -0.503906 4.644531 -6 4.644531 -11.210938 C 4.644531 -16.390625 7.769531 -21.917969 12.03125 -21.917969 C 14.148438 -21.917969 16.171875 -20.8125 17.71875 -18.949219 L 18.382812 -19.488281 C 16.675781 -21.570312 14.339844 -22.707031 12.03125 -22.769531 C 6.601562 -22.769531 2.527344 -17.589844 2.527344 -11.210938 C 2.527344 -4.832031 6.601562 0.347656 12.03125 0.347656 Z M 12.03125 0.347656 "/></g></g></g><g fill="#7ed957" fill-opacity="1"><g transform="translate(163.79831, 228.848452)"><g><path d="M 3.160156 0 L 4.042969 0 L 5.84375 -5.8125 L 15.316406 -5.8125 L 17.085938 0 L 19.328125 0 L 12.347656 -22.675781 L 10.105469 -22.675781 L 10.105469 -22.644531 Z M 6.09375 -6.664062 L 10.582031 -21.191406 L 15.035156 -6.664062 Z M 6.09375 -6.664062 "/></g></g></g><g fill="#7ed957" fill-opacity="1"><g transform="translate(187.484958, 228.848452)"><g><path d="M 3.160156 0 L 5.273438 0 L 5.273438 -10.960938 L 8.683594 -10.960938 L 16.519531 0 L 18.855469 0 L 11.054688 -10.960938 C 14.210938 -10.960938 17.179688 -13.515625 17.179688 -16.863281 C 17.179688 -20.308594 14.210938 -22.675781 11.117188 -22.675781 L 3.160156 -22.675781 Z M 5.273438 -11.8125 L 5.273438 -21.824219 L 10.707031 -21.824219 C 13.105469 -21.824219 15.035156 -19.265625 15.035156 -16.863281 C 15.035156 -14.464844 13.105469 -11.8125 10.707031 -11.8125 Z M 5.273438 -11.8125 "/></g></g></g><g fill="#7ed957" fill-opacity="1"><g transform="translate(210.666292, 228.848452)"><g><path d="M 3.160156 0 L 5.304688 0 L 5.304688 -22.675781 L 3.160156 -22.675781 Z M 3.160156 0 "/></g></g></g><g fill="#7ed957" fill-opacity="1"><g transform="translate(220.330483, 228.848452)"><g><path d="M 12.03125 0.347656 C 17.433594 0.347656 21.539062 -4.832031 21.539062 -11.210938 C 21.539062 -17.589844 17.433594 -22.769531 12.03125 -22.769531 C 6.601562 -22.769531 2.527344 -17.589844 2.527344 -11.210938 C 2.527344 -4.832031 6.601562 0.347656 12.03125 0.347656 Z M 12.03125 -0.503906 C 7.769531 -0.503906 4.644531 -6.03125 4.644531 -11.210938 C 4.644531 -16.421875 7.769531 -21.917969 12.03125 -21.917969 C 16.265625 -21.917969 19.390625 -16.421875 19.390625 -11.210938 C 19.390625 -6.03125 16.265625 -0.503906 12.03125 -0.503906 Z M 12.03125 -0.503906 "/></g></g></g><g fill="#7ed957" fill-opacity="1"><g transform="translate(245.564659, 228.848452)"><g><path d="M 8.9375 0.347656 C 9.726562 0.316406 10.167969 0.285156 10.769531 0.125 C 13.613281 -0.632812 15.695312 -2.714844 16.042969 -5.273438 C 16.613281 -9.410156 12.980469 -11.085938 10.296875 -12.316406 C 10.136719 -12.378906 9.949219 -12.476562 9.789062 -12.570312 C 6.917969 -13.894531 5.023438 -15.191406 5.085938 -17.277344 C 5.242188 -22.203125 12.128906 -23.972656 13.992188 -19.582031 L 14.78125 -19.929688 C 13.992188 -21.761719 11.683594 -23.277344 8.304688 -22.613281 C 5.558594 -22.074219 3.03125 -20.117188 2.96875 -17.339844 C 2.875 -13.421875 6.917969 -11.527344 8.875 -10.613281 C 9.0625 -10.546875 9.222656 -10.453125 9.410156 -10.359375 C 12.378906 -9.03125 14.339844 -6.726562 13.929688 -4.390625 C 13.042969 0.570312 6.507812 1.011719 3.222656 -3.664062 L 2.527344 -3.191406 C 4.359375 -0.570312 6.820312 0.347656 8.9375 0.347656 Z M 8.9375 0.347656 "/></g></g></g><g fill="#c1ff72" fill-opacity="1"><g transform="translate(118.963714, 255.120187)"><g><path d="M 1.304688 0 L 4.851562 0.0117188 C 6.261719 0.0117188 7.367188 -1.015625 7.367188 -2.453125 C 7.367188 -3.652344 6.597656 -4.5 5.515625 -4.800781 C 6.378906 -5.164062 6.964844 -5.933594 6.964844 -6.964844 C 6.964844 -8.320312 5.960938 -9.363281 4.644531 -9.363281 L 1.304688 -9.363281 Z M 2.191406 -4.902344 L 2.191406 -9.011719 L 4.289062 -9.011719 C 5.28125 -9.011719 6.089844 -7.957031 6.089844 -6.964844 C 6.089844 -5.972656 5.28125 -4.902344 4.289062 -4.902344 Z M 2.191406 -0.339844 L 2.191406 -4.550781 L 4.644531 -4.550781 C 5.660156 -4.550781 6.496094 -3.46875 6.496094 -2.453125 C 6.496094 -1.433594 5.660156 -0.339844 4.644531 -0.339844 Z M 2.191406 -0.339844 "/></g></g></g><g fill="#c1ff72" fill-opacity="1"><g transform="translate(131.973191, 255.120187)"><g><path d="M 1.304688 0 L 1.667969 0 L 2.414062 -2.398438 L 6.324219 -2.398438 L 7.054688 0 L 7.980469 0 L 5.101562 -9.363281 L 4.171875 -9.363281 L 4.171875 -9.351562 Z M 2.515625 -2.753906 L 4.371094 -8.75 L 6.207031 -2.753906 Z M 2.515625 -2.753906 "/></g></g></g><g fill="#c1ff72" fill-opacity="1"><g transform="translate(145.608167, 255.120187)"><g><path d="M 1.304688 0 L 2.179688 0 L 2.179688 -4.527344 L 3.585938 -4.527344 L 6.820312 0 L 7.785156 0 L 4.566406 -4.527344 C 5.867188 -4.527344 7.09375 -5.582031 7.09375 -6.964844 C 7.09375 -8.386719 5.867188 -9.363281 4.589844 -9.363281 L 1.304688 -9.363281 Z M 2.179688 -4.878906 L 2.179688 -9.011719 L 4.421875 -9.011719 C 5.414062 -9.011719 6.207031 -7.957031 6.207031 -6.964844 C 6.207031 -5.972656 5.414062 -4.878906 4.421875 -4.878906 Z M 2.179688 -4.878906 "/></g></g></g><g fill="#c1ff72" fill-opacity="1"><g transform="translate(159.034644, 255.120187)"><g><path d="M 1.304688 0 L 4.851562 0.0117188 C 6.261719 0.0117188 7.367188 -1.015625 7.367188 -2.453125 C 7.367188 -3.652344 6.597656 -4.5 5.515625 -4.800781 C 6.378906 -5.164062 6.964844 -5.933594 6.964844 -6.964844 C 6.964844 -8.320312 5.960938 -9.363281 4.644531 -9.363281 L 1.304688 -9.363281 Z M 2.191406 -4.902344 L 2.191406 -9.011719 L 4.289062 -9.011719 C 5.28125 -9.011719 6.089844 -7.957031 6.089844 -6.964844 C 6.089844 -5.972656 5.28125 -4.902344 4.289062 -4.902344 Z M 2.191406 -0.339844 L 2.191406 -4.550781 L 4.644531 -4.550781 C 5.660156 -4.550781 6.496094 -3.46875 6.496094 -2.453125 C 6.496094 -1.433594 5.660156 -0.339844 4.644531 -0.339844 Z M 2.191406 -0.339844 "/></g></g></g><g fill="#c1ff72" fill-opacity="1"><g transform="translate(172.044121, 255.120187)"><g><path d="M 1.304688 0 L 6.875 0 L 6.875 -0.351562 L 2.191406 -0.351562 L 2.191406 -4.566406 L 5.726562 -4.566406 L 5.726562 -4.917969 L 2.191406 -4.917969 L 2.191406 -9.011719 L 6.597656 -9.011719 L 6.597656 -9.363281 L 1.304688 -9.363281 Z M 1.304688 0 "/></g></g></g><g fill="#c1ff72" fill-opacity="1"><g transform="translate(184.558412, 255.120187)"><g><path d="M 1.304688 0 L 2.179688 0 L 2.179688 -4.527344 L 3.585938 -4.527344 L 6.820312 0 L 7.785156 0 L 4.566406 -4.527344 C 5.867188 -4.527344 7.09375 -5.582031 7.09375 -6.964844 C 7.09375 -8.386719 5.867188 -9.363281 4.589844 -9.363281 L 1.304688 -9.363281 Z M 2.179688 -4.878906 L 2.179688 -9.011719 L 4.421875 -9.011719 C 5.414062 -9.011719 6.207031 -7.957031 6.207031 -6.964844 C 6.207031 -5.972656 5.414062 -4.878906 4.421875 -4.878906 Z M 2.179688 -4.878906 "/></g></g></g><g fill="#c1ff72" fill-opacity="1"><g transform="translate(197.984888, 255.120187)"><g><path d="M 3.691406 0.144531 C 4.015625 0.128906 4.199219 0.117188 4.449219 0.0507812 C 5.621094 -0.261719 6.480469 -1.121094 6.625 -2.179688 C 6.859375 -3.886719 5.359375 -4.578125 4.25 -5.085938 C 4.1875 -5.113281 4.109375 -5.152344 4.042969 -5.191406 C 2.855469 -5.738281 2.074219 -6.273438 2.101562 -7.132812 C 2.164062 -9.167969 5.007812 -9.898438 5.777344 -8.085938 L 6.105469 -8.230469 C 5.777344 -8.984375 4.824219 -9.613281 3.429688 -9.339844 C 2.296875 -9.117188 1.253906 -8.308594 1.226562 -7.160156 C 1.1875 -5.542969 2.855469 -4.761719 3.664062 -4.382812 C 3.742188 -4.355469 3.808594 -4.316406 3.886719 -4.277344 C 5.113281 -3.730469 5.921875 -2.777344 5.75 -1.8125 C 5.386719 0.234375 2.6875 0.417969 1.332031 -1.511719 L 1.042969 -1.316406 C 1.800781 -0.234375 2.816406 0.144531 3.691406 0.144531 Z M 3.691406 0.144531 "/></g></g></g><g fill="#c1ff72" fill-opacity="1"><g transform="translate(210.017028, 255.120187)"><g><path d="M 1.304688 0 L 2.191406 0 L 2.191406 -4.550781 L 6.078125 -4.550781 L 6.078125 0 L 6.964844 0 L 6.964844 -9.363281 L 6.078125 -9.363281 L 6.078125 -4.902344 L 2.191406 -4.902344 L 2.191406 -9.363281 L 1.304688 -9.363281 Z M 1.304688 0 "/></g></g></g><g fill="#c1ff72" fill-opacity="1"><g transform="translate(222.62254, 255.120187)"><g><path d="M 4.96875 0.144531 C 7.199219 0.144531 8.894531 -1.996094 8.894531 -4.628906 C 8.894531 -7.265625 7.199219 -9.402344 4.96875 -9.402344 C 2.726562 -9.402344 1.042969 -7.265625 1.042969 -4.628906 C 1.042969 -1.996094 2.726562 0.144531 4.96875 0.144531 Z M 4.96875 -0.207031 C 3.207031 -0.207031 1.917969 -2.492188 1.917969 -4.628906 C 1.917969 -6.78125 3.207031 -9.050781 4.96875 -9.050781 C 6.71875 -9.050781 8.007812 -6.78125 8.007812 -4.628906 C 8.007812 -2.492188 6.71875 -0.207031 4.96875 -0.207031 Z M 4.96875 -0.207031 "/></g></g></g><g fill="#c1ff72" fill-opacity="1"><g transform="translate(236.896057, 255.120187)"><g><path d="M 1.304688 0 L 2.191406 0 L 2.191406 -4.539062 L 4.695312 -4.539062 C 5.828125 -4.539062 7.082031 -5.59375 7.082031 -6.976562 C 7.082031 -8.398438 5.972656 -9.363281 4.566406 -9.363281 L 1.304688 -9.363281 Z M 2.191406 -4.890625 L 2.191406 -9.011719 L 4.410156 -9.011719 C 5.386719 -9.011719 6.195312 -7.96875 6.195312 -6.976562 C 6.195312 -5.988281 5.386719 -4.890625 4.410156 -4.890625 Z M 2.191406 -4.890625 "/></g></g></g><g fill="#c1ff72" fill-opacity="1"><g transform="translate(249.100428, 255.120187)"><g/></g></g></svg>